<svg width="16" height="16" viewBox="0 0 16 16" xmlns="http://www.w3.org/2000/svg">
  <path fill="none" stroke="#6C707E" stroke-linecap="round" stroke-miterlimit="10" d="M8.02 6.09c-.39 1.14-.8 2.34-1.19 3.46"/>
  <path fill="none" stroke="#6C707E" stroke-linecap="round" stroke-miterlimit="10" d="M9.74 14.5c.57 0 1-.54.8-1.11-.6-1.76-3.95-11.4-4.3-12.4-.1-.3-.38-.48-.71-.48"/>
  <path fill="none" stroke="#6C707E" stroke-linecap="round" stroke-miterlimit="10" d="M6.16 11.48c-.38 1.1-.69 2.01-.88 2.57-.08.24-.37.45-.69.45H1.26c-.4 0-.76-.33-.76-.73 0-.08.01-.15.04-.23.23-.67 3.74-10.93 4.3-12.56.1-.28.39-.47.7-.47h4.94c.31 0 .61.19.71.5.91 2.66 3.78 10.98 4.27 12.42.03.08.04.16.04.24 0 .42-.34.84-.86.84h-4.9a.85.85 0 0 1-.59-.23c-.66-.61-4.1-3.82-4.41-4.11-.23-.22-.07-.62.25-.62H8.8c.13 0 .26.05.36.14l.14.13"/>
</svg>
