<svg width="20" height="20" viewBox="0 0 20 20" xmlns="http://www.w3.org/2000/svg">
  <path fill="none" stroke="#6C707E" stroke-linecap="round" stroke-miterlimit="10" stroke-width="1.5" d="M10.02 7.73c-.48 1.43-.99 2.92-1.47 4.33"/>
  <path fill="none" stroke="#6C707E" stroke-linecap="round" stroke-miterlimit="10" stroke-width="1.5" d="M12.15 18.25c.7 0 1.23-.68.99-1.39-.74-2.2-4.88-14.25-5.3-15.5a.895.895 0 0 0-.87-.61"/>
  <path fill="none" stroke="#6C707E" stroke-linecap="round" stroke-miterlimit="10" stroke-width="1.5" d="M7.73 14.48c-.47 1.37-.85 2.51-1.09 3.21-.1.3-.45.56-.85.56H1.68c-.49 0-.93-.41-.93-.92 0-.09.02-.19.05-.29.28-.84 4.61-13.66 5.3-15.7.12-.35.48-.59.87-.59h6.09c.38 0 .75.24.88.63C15.07 4.7 18.6 15.1 19.21 16.9c.03.1.05.2.05.3 0 .52-.41 1.05-1.06 1.05h-6.04c-.35 0-.58-.15-.72-.29-.81-.76-5.06-4.77-5.44-5.13-.29-.27-.09-.77.31-.77h4.7c.16 0 .32.06.44.17l.18.17"/>
</svg>
