<svg width="16" height="16" viewBox="0 0 16 16" fill="none" xmlns="http://www.w3.org/2000/svg">
<path d="M14.0772 6.72706C14.3991 5.77414 14.2886 4.73114 13.7744 3.86355C13.0007 2.53608 11.4437 1.85338 9.92512 2.17103C9.59003 1.80056 9.17896 1.50458 8.71915 1.3027C8.25934 1.10082 7.76128 0.997655 7.258 1.00004C5.7058 1.00004 4.32658 1.98614 3.84601 3.44159C2.84646 3.64545 1.98625 4.26175 1.48166 5.13411C0.703159 6.46155 0.880967 8.13034 1.92376 9.26818C1.60181 10.2211 1.71232 11.2641 2.22652 12.127C3.00022 13.4592 4.55725 14.1419 6.08064 13.8242C6.75343 14.5733 7.72415 15.0047 8.74295 15C10.2951 15 11.6744 14.0138 12.1549 12.5584C13.1545 12.3545 14.0147 11.7382 14.5145 10.8659C15.2978 9.53842 15.12 7.8696 14.0772 6.7318V6.72706ZM12.9719 4.3234C13.2794 4.85438 13.3948 5.47546 13.2891 6.07754C13.2698 6.06332 13.2314 6.04436 13.2074 6.03014L10.3817 4.4182C10.3105 4.37858 10.2303 4.35775 10.1486 4.35775C10.0669 4.35775 9.98662 4.37858 9.91551 4.4182L6.60445 6.30513V4.92077L9.33884 3.36101C10.6123 2.63565 12.2366 3.06706 12.9719 4.3234ZM6.60445 7.20113L7.99809 6.40467L9.39169 7.20113V8.78936L7.99809 9.58582L6.60445 8.78936V7.20113ZM7.25319 1.915C7.87794 1.915 8.47863 2.12837 8.9592 2.52186C8.93998 2.53134 8.90154 2.55504 8.87268 2.56926L6.047 4.17646C5.90283 4.25707 5.81632 4.40878 5.81632 4.57469V8.34847L4.60049 7.6563V4.53674C4.60049 3.08602 5.78749 1.91503 7.258 1.91029L7.25319 1.915ZM2.28899 5.59402C2.60136 5.06301 3.08673 4.6553 3.67301 4.44196V7.75584C3.67301 7.92175 3.75953 8.06875 3.9037 8.15407L7.20995 10.0362L5.98932 10.7331L3.25974 9.17811C1.99106 8.45276 1.55373 6.85036 2.28899 5.59402ZM3.03388 11.6766C2.72151 11.1504 2.61097 10.5246 2.7167 9.92246C2.73592 9.93668 2.77436 9.95564 2.79839 9.96986L5.62409 11.5818C5.69521 11.6214 5.7755 11.6422 5.85717 11.6422C5.93885 11.6422 6.01913 11.6214 6.09025 11.5818L9.3965 9.6949V11.0793L6.66211 12.6343C5.38863 13.3549 3.76433 12.9282 3.02908 11.6766H3.03388ZM8.74776 14.085C8.12782 14.085 7.52232 13.8717 7.04656 13.4781C7.07584 13.4632 7.10469 13.4473 7.13307 13.4307L9.95878 11.8236C10.1029 11.743 10.1942 11.5913 10.1894 11.4253V7.65627L11.4053 8.34845V11.4632C11.4053 12.914 10.2135 14.0897 8.74776 14.0897V14.085ZM13.7167 10.406C13.4044 10.937 12.9142 11.3447 12.3327 11.5533V8.23942C12.3327 8.07349 12.2462 7.92177 12.1021 7.84119L8.791 5.9543L10.0068 5.26212L12.7412 6.81712C14.0147 7.54248 14.4472 9.14493 13.712 10.4013L13.7167 10.406Z" fill="#9AA7B0"/>
</svg>
