<svg width="16" height="16" viewBox="0 0 16 16" fill="none" xmlns="http://www.w3.org/2000/svg">
<path d="M12.875 16H14.125V14.75H12.875V16ZM13.5 8.5C12.837 8.5 12.2011 8.76339 11.7322 9.23223C11.2634 9.70107 11 10.337 11 11H12.25C12.25 10.312 12.813 9.75 13.5 9.75C14.188 9.75 14.75 10.313 14.75 11C14.75 12.25 12.875 12.094 12.875 14.125H14.125C14.125 12.719 16 12.562 16 11C16 10.337 15.7366 9.70107 15.2678 9.23223C14.7989 8.76339 14.163 8.5 13.5 8.5Z" fill="#AFB1B3"/>
<path fill-rule="evenodd" clip-rule="evenodd" d="M13.7744 3.86355C14.2886 4.73114 14.3991 5.77414 14.0772 6.72706V6.7318C14.35 7.02944 14.5636 7.36342 14.7163 7.71813C14.3394 7.57846 13.9379 7.50347 13.5287 7.50012C13.3212 7.23093 13.0571 6.99704 12.7412 6.81712L10.0068 5.26212L8.791 5.9543L12.0529 7.81317C11.7816 7.93635 11.5258 8.09428 11.2923 8.28412L10.1894 7.65627V9.86413C10.0652 10.2263 10 10.6098 10 11V11.7976C9.98681 11.8069 9.97305 11.8156 9.95878 11.8236L7.13307 13.4307C7.10469 13.4473 7.07584 13.4632 7.04656 13.4781C7.52232 13.8717 8.12782 14.085 8.74776 14.085V14.0897C10.0276 14.0897 11.0986 13.1932 11.3496 12H12.636C12.523 12.1278 12.4123 12.2728 12.3124 12.438C12.2928 12.4703 12.2739 12.5031 12.2555 12.5364C12.2221 12.5442 12.1886 12.5515 12.1549 12.5584C11.6744 14.0138 10.2951 15 8.74295 15C7.72415 15.0047 6.75343 14.5733 6.08064 13.8242C4.55724 14.1419 3.00022 13.4592 2.22652 12.127C1.71232 11.2641 1.60181 10.2211 1.92376 9.26818C0.880966 8.13034 0.70316 6.46155 1.48166 5.13411C1.98625 4.26175 2.84646 3.64544 3.84602 3.44159C4.32658 1.98613 5.7058 1.00004 7.258 1.00004C7.76128 0.997655 8.25934 1.10082 8.71915 1.3027C9.17896 1.50458 9.59003 1.80056 9.92512 2.17103C11.4437 1.85338 13.0007 2.53608 13.7744 3.86355ZM13.289 6.07754C13.3948 5.47546 13.2794 4.85438 12.9719 4.3234C12.2366 3.06706 10.6123 2.63565 9.33884 3.36101L6.60445 4.92077V6.30512L9.9155 4.4182C9.98662 4.37858 10.0669 4.35775 10.1486 4.35775C10.2303 4.35775 10.3105 4.37858 10.3817 4.4182L13.2074 6.03014C13.2158 6.03515 13.2261 6.04075 13.2366 6.04652C13.2561 6.05713 13.2766 6.06833 13.289 6.07754ZM7.99809 6.40467L6.60445 7.20113V8.78936L7.99809 9.58582L9.39169 8.78936V7.20113L7.99809 6.40467ZM8.9592 2.52186C8.47863 2.12837 7.87794 1.915 7.25319 1.915L7.258 1.91029C5.78748 1.91503 4.60049 3.08602 4.60049 4.53674V7.6563L5.81632 8.34847V4.57468C5.81632 4.40878 5.90283 4.25707 6.04701 4.17645L8.87268 2.56926C8.8886 2.56141 8.90743 2.55069 8.92435 2.54105C8.9381 2.53322 8.95058 2.52611 8.9592 2.52186ZM3.67301 4.44196C3.08674 4.6553 2.60136 5.06301 2.28899 5.59402C1.55373 6.85036 1.99106 8.45276 3.25974 9.17811L5.98932 10.7331L7.20995 10.0362L3.9037 8.15407C3.75953 8.06875 3.67301 7.92175 3.67301 7.75584V4.44196ZM2.71671 9.92246C2.61097 10.5246 2.72151 11.1504 3.03388 11.6766H3.02908C3.76433 12.9282 5.38863 13.3549 6.66211 12.6343L9.3965 11.0793V9.6949L6.09025 11.5818C6.01913 11.6214 5.93884 11.6422 5.85717 11.6422C5.7755 11.6422 5.69521 11.6214 5.62409 11.5818L2.79839 9.96986C2.78992 9.96485 2.77967 9.95925 2.7691 9.95348C2.74967 9.94287 2.72916 9.93167 2.71671 9.92246Z" fill="#9AA7B0"/>
</svg>
