<svg width="16" height="16" viewBox="0 0 16 16" fill="none" xmlns="http://www.w3.org/2000/svg">
<path fill-rule="evenodd" clip-rule="evenodd" d="M7.79156 3.48671C9.70411 2.46477 11.3776 2.46477 12.4705 2.60103C11.2068 1.54503 9.60165 1 7.99647 1C7.27926 1 6.56206 1.10219 5.84485 1.34065C6.49375 2.09006 7.14265 2.80542 7.79156 3.48671ZM3.45467 6.10956C3.83035 5.9733 4.24019 5.93924 4.61587 6.04143C4.65002 5.99034 4.69271 5.94775 4.7354 5.90517C4.77809 5.86259 4.82078 5.82001 4.85494 5.76892C5.50384 5.08763 6.18689 4.50853 6.80164 4.09976C6.05028 3.31627 5.40138 2.53279 4.92324 1.71524C4.51341 1.91963 4.10358 2.15808 3.7279 2.4306L3.6797 2.47263C3.42635 2.6935 3.20144 2.88958 2.97654 3.14595C2.87408 3.69098 2.83992 4.78105 3.45467 6.10956ZM6.31669 14.7987C6.86699 14.9324 7.43221 15 7.99742 15C9.50014 15 10.9687 14.5231 12.2324 13.5693L12.8471 13.0583C12.1299 13.0583 11.2078 13.0243 10.149 12.7858C10.1292 12.8056 10.1064 12.8312 10.0808 12.8601L10.0807 12.8601C10.0182 12.9303 9.93853 13.0199 9.84167 13.0924C9.22692 13.5693 8.3731 13.433 7.89496 12.8199C7.8825 12.8012 7.87041 12.7824 7.85871 12.7635C7.75041 12.8149 7.63242 12.8597 7.50453 12.8952C7.46229 13.009 7.41541 13.1312 7.36418 13.2554C7.21875 13.6079 7.00268 14.0673 6.68117 14.4314C6.56671 14.561 6.44499 14.6836 6.31669 14.7987ZM8.83605 10.5931C9.27847 10.5606 9.71913 10.7352 10.0116 11.1166C10.1482 11.287 10.2165 11.4914 10.2507 11.6617C11.9925 12.1726 13.2561 12.0023 13.7001 11.9001C14.0416 11.4232 14.2807 10.9123 14.4856 10.3672C14.2124 10.1969 13.7684 9.89032 13.0854 9.41342C13.1537 9.44748 13.1195 9.48155 13.0854 9.51561C12.4364 10.0266 11.4802 9.89032 10.9679 9.2431C10.6264 8.76619 10.5922 8.1871 10.7971 7.67613C9.90914 6.99484 8.98702 6.21135 8.09905 5.42787C7.51845 5.80258 6.9037 6.31355 6.2548 6.89264L6.01573 7.1311C6.28871 7.67564 6.32168 8.30723 6.11464 8.85193L6.88546 9.29776L6.89419 9.30305C6.8904 9.30075 6.90167 9.30753 6.91234 9.31416C6.92379 9.32126 6.93751 9.32998 6.95316 9.34029C6.98434 9.36086 7.02264 9.38742 7.06585 9.42019C7.15142 9.4851 7.26018 9.57732 7.37222 9.69912C7.44825 9.78177 7.52855 9.88123 7.60444 9.9976C8.09081 10.0593 8.39878 10.2481 8.5422 10.3617L8.83605 10.5931ZM2.37636 7C2.41372 6.94023 2.45443 6.8818 2.49848 6.82494C2.02035 5.66674 2.0545 4.71294 2.22526 4.03165C1.25455 5.45305 0.845888 7.17343 1.05213 8.84625H2.07667V8.32698C2.05849 8.16892 2.05849 8.00997 2.07667 7.85298V7H2.37636ZM9.08954 4.81495C9.9092 5.63249 10.6947 6.38191 11.4119 6.99507C12.0608 6.62036 12.8805 6.79069 13.3586 7.36978C13.7002 7.81262 13.7343 8.35765 13.5635 8.80049C14.0245 9.17405 14.3639 9.42641 14.6229 9.61891C14.6709 9.65461 14.7161 9.68826 14.7589 9.72023C15.3053 7.71043 14.9297 5.46217 13.5635 3.69082C13.5294 3.65675 13.4952 3.62269 13.4952 3.58862C13.477 3.59318 13.4295 3.59469 13.3548 3.59706C12.8712 3.61243 11.2495 3.66396 9.08954 4.81495Z" fill="#40B6E0" fill-opacity="0.7"/>
<path fill-rule="evenodd" clip-rule="evenodd" d="M1.23042 9.84625H2.46126V11.0771H1.23042V9.84625Z" fill="#34A2F2"/>
<path fill-rule="evenodd" clip-rule="evenodd" d="M3.07667 9.84625H4.3075V11.0771H3.07667V9.84625Z" fill="#34A2F2"/>
<path fill-rule="evenodd" clip-rule="evenodd" d="M3.07667 8H4.3075V9.23083H3.07667V8Z" fill="#34A2F2"/>
<path fill-rule="evenodd" clip-rule="evenodd" d="M7.92184 11.146L8 11.2075L7.96738 11.3029C7.91557 11.4339 7.83575 11.5519 7.73352 11.6488C7.58029 11.8008 7.3015 11.9817 6.84856 11.9817H6.77532C6.59193 12.4458 6.34515 13.3012 5.93159 13.7695C5.68404 14.0497 5.3929 14.288 5.06939 14.4754C4.67658 14.6979 4.24933 14.853 3.80532 14.9345C3.48607 14.9938 3.16198 15.023 2.83728 15.0219C2.11847 15.0219 1.80953 14.9413 1.30797 14.7019C0.806403 14.4631 0.504849 14.0686 0.234066 13.4557C0.0537491 13.0464 -0.0225625 12.4587 0.00574661 11.6913H5.54203C5.60603 11.6888 5.92174 11.6617 6.11806 11.5522C5.95497 11.2949 5.90882 10.9934 5.98513 10.6728C6.02516 10.5049 6.09341 10.3451 6.18698 10.2001L6.26206 10.0924L6.37592 10.1583C6.39623 10.1706 6.86086 10.4444 6.94272 11.0057C7.05349 10.9872 7.16426 10.978 7.27689 10.9774C7.70029 10.9774 7.9003 11.1288 7.92184 11.146ZM2.3751 13.6618C2.57912 13.6618 2.77479 13.5808 2.91905 13.4365C3.06332 13.2922 3.14437 13.0966 3.14437 12.8926C3.14437 12.6885 3.06332 12.4929 2.91905 12.3486C2.77479 12.2043 2.57912 12.1233 2.3751 12.1233C2.17107 12.1233 1.97541 12.2043 1.83114 12.3486C1.68688 12.4929 1.60583 12.6885 1.60583 12.8926C1.60583 13.0966 1.68688 13.2922 1.83114 13.4365C1.97541 13.5808 2.17107 13.6618 2.3751 13.6618Z" fill="#34A2F2"/>
<path d="M2.3751 13.508C2.71498 13.508 2.99051 13.2324 2.99051 12.8926C2.99051 12.5527 2.71498 12.2771 2.3751 12.2771C2.03521 12.2771 1.75968 12.5527 1.75968 12.8926C1.75968 13.2324 2.03521 13.508 2.3751 13.508Z" fill="#34A2F2"/>
</svg>
