<svg width="16" height="16" viewBox="0 0 16 16" fill="none" xmlns="http://www.w3.org/2000/svg">
<path fill-rule="evenodd" clip-rule="evenodd" d="M13 4L11.8 4.9L14.125 8L11.8 11.1L13 12L16 8L13 4Z" fill="#40B6E0" fill-opacity="0.8"/>
<path fill-rule="evenodd" clip-rule="evenodd" d="M3 4L4.2 4.9L1.875 8L2.50989 8.84625H1.23043V9.64057L0 8L3 4Z" fill="#40B6E0" fill-opacity="0.8"/>
<path fill-rule="evenodd" clip-rule="evenodd" d="M7.19998 7L11 7.5L9.11153 10.1228C8.97156 10.0691 8.80284 10.0228 8.60444 9.9976C8.52855 9.88123 8.44825 9.78177 8.37222 9.69912C8.26018 9.57732 8.15142 9.4851 8.06585 9.42019C8.02264 9.38742 7.98434 9.36086 7.95315 9.34029C7.9375 9.32998 7.92378 9.32126 7.91234 9.31416C7.90167 9.30753 7.8904 9.30075 7.89418 9.30305L7.88545 9.29776L6.96726 8.76669L6.8424 8.9458L6.3075 8.86191V7H4.63998L7.19998 1H12L7.19998 7Z" fill="#F4AF3D" fill-opacity="0.7"/>
<path fill-rule="evenodd" clip-rule="evenodd" d="M2.23042 9.84625H3.46126V11.0771H2.23042V9.84625Z" fill="#34A2F2"/>
<path fill-rule="evenodd" clip-rule="evenodd" d="M4.07667 9.84625H5.3075V11.0771H4.07667V9.84625Z" fill="#34A2F2"/>
<path fill-rule="evenodd" clip-rule="evenodd" d="M4.07667 8H5.3075V9.23083H4.07667V8Z" fill="#34A2F2"/>
<path fill-rule="evenodd" clip-rule="evenodd" d="M8.92184 11.146L9 11.2075L8.96738 11.3029C8.91557 11.4339 8.83575 11.5519 8.73352 11.6488C8.58029 11.8008 8.3015 11.9817 7.84856 11.9817H7.77532C7.59193 12.4458 7.34515 13.3012 6.93159 13.7695C6.68404 14.0497 6.3929 14.288 6.06939 14.4754C5.67658 14.6979 5.24933 14.853 4.80532 14.9345C4.48607 14.9938 4.16198 15.023 3.83728 15.0219C3.11847 15.0219 2.80953 14.9413 2.30797 14.7019C1.8064 14.4631 1.50485 14.0686 1.23407 13.4557C1.05375 13.0464 0.977437 12.4587 1.00575 11.6913H6.54203C6.60603 11.6888 6.92174 11.6617 7.11806 11.5522C6.95497 11.2949 6.90882 10.9934 6.98513 10.6728C7.02516 10.5049 7.09341 10.3451 7.18698 10.2001L7.26206 10.0924L7.37592 10.1583C7.39623 10.1706 7.86086 10.4444 7.94271 11.0057C8.05349 10.9872 8.16426 10.978 8.27689 10.9774C8.70029 10.9774 8.9003 11.1288 8.92184 11.146ZM3.3751 13.6618C3.57912 13.6618 3.77479 13.5808 3.91905 13.4365C4.06332 13.2922 4.14437 13.0966 4.14437 12.8926C4.14437 12.6885 4.06332 12.4929 3.91905 12.3486C3.77479 12.2043 3.57912 12.1233 3.3751 12.1233C3.17107 12.1233 2.97541 12.2043 2.83114 12.3486C2.68688 12.4929 2.60583 12.6885 2.60583 12.8926C2.60583 13.0966 2.68688 13.2922 2.83114 13.4365C2.97541 13.5808 3.17107 13.6618 3.3751 13.6618Z" fill="#34A2F2"/>
<path d="M3.3751 13.508C3.71498 13.508 3.99051 13.2324 3.99051 12.8926C3.99051 12.5527 3.71498 12.2771 3.3751 12.2771C3.03521 12.2771 2.75968 12.5527 2.75968 12.8926C2.75968 13.2324 3.03521 13.508 3.3751 13.508Z" fill="#34A2F2"/>
</svg>
