<svg width="16" height="16" viewBox="0 0 16 16" fill="none" xmlns="http://www.w3.org/2000/svg">
<path fill-rule="evenodd" clip-rule="evenodd" d="M3 4L4.2 4.9L2.625 7H2.07667V7.7311L1.875 8L2.07667 8.26881V8.84625H0.634686L0 8L3 4Z" fill="#40B6E0" fill-opacity="0.8"/>
<path fill-rule="evenodd" clip-rule="evenodd" d="M11 7.5L7.19998 7L12 1H7.19998L4.63998 7H5.3075V8.70507L5.94096 8.80442L5.96726 8.76669L6.06654 8.82412L7.18798 9L7.03104 9.39432C7.04223 9.40247 7.05385 9.41109 7.06584 9.42019C7.15142 9.4851 7.26018 9.57732 7.37222 9.69912C7.44824 9.78177 7.52854 9.88123 7.60444 9.9976C8.0887 10.0591 8.39611 10.2465 8.54032 10.3602C8.92281 9.65391 9.48875 9.06148 10.1743 8.64683L11 7.5Z" fill="#F4AF3D" fill-opacity="0.7"/>
<path fill-rule="evenodd" clip-rule="evenodd" d="M4.3075 8H3.07667V9.23083H4.3075V8ZM1.23042 9.84625H2.46126V11.0771H1.23042V9.84625ZM3.07667 9.84625H4.3075V11.0771H3.07667V9.84625ZM7.26408 10.9775C7.15587 10.9787 7.04929 10.9879 6.94272 11.0057C6.86183 10.451 6.4071 10.1771 6.37682 10.1588L6.37592 10.1583L6.26206 10.0924L6.18698 10.2001C6.09341 10.3451 6.02516 10.5049 5.98513 10.6728C5.90882 10.9934 5.95497 11.2949 6.11806 11.5522C5.92174 11.6617 5.60603 11.6888 5.54203 11.6913H0.0057466C-0.0225625 12.4587 0.0537491 13.0464 0.234066 13.4557C0.504849 14.0686 0.806403 14.4631 1.30797 14.7019C1.80953 14.9413 2.11847 15.0219 2.83728 15.0219C3.16198 15.023 3.48607 14.9938 3.80532 14.9345C4.24933 14.853 4.67658 14.6979 5.06939 14.4754C5.3929 14.288 5.68404 14.0497 5.93159 13.7695C6.26129 13.3962 6.485 12.7767 6.65509 12.3058L6.65512 12.3057C6.69836 12.186 6.73815 12.0758 6.77532 11.9817H6.84856C6.91273 11.9817 6.9734 11.9781 7.03072 11.9714C7.07105 11.6267 7.15035 11.2939 7.26408 10.9775ZM2.3751 13.6618C2.57912 13.6618 2.77479 13.5808 2.91905 13.4365C3.06332 13.2922 3.14437 13.0966 3.14437 12.8926C3.14437 12.6885 3.06332 12.4929 2.91905 12.3486C2.77479 12.2043 2.57912 12.1233 2.3751 12.1233C2.17107 12.1233 1.97541 12.2043 1.83114 12.3486C1.68688 12.4929 1.60583 12.6885 1.60583 12.8926C1.60583 13.0966 1.68688 13.2922 1.83114 13.4365C1.97541 13.5808 2.17107 13.6618 2.3751 13.6618ZM2.99051 12.8926C2.99051 13.2324 2.71498 13.508 2.3751 13.508C2.03521 13.508 1.75968 13.2324 1.75968 12.8926C1.75968 12.5527 2.03521 12.2771 2.3751 12.2771C2.71498 12.2771 2.99051 12.5527 2.99051 12.8926Z" fill="#34A2F2"/>
<path fill-rule="evenodd" clip-rule="evenodd" d="M12.5 16C14.433 16 16 14.433 16 12.5C16 10.567 14.433 9 12.5 9C10.567 9 9 10.567 9 12.5C9 14.433 10.567 16 12.5 16ZM10.7322 11.4393L11.4393 10.7322L12.5 11.7929L13.5607 10.7323L14.2678 11.4394L13.2071 12.5L14.2678 13.5607L13.5607 14.2678L12.5 13.2071L11.4393 14.2678L10.7322 13.5607L11.7929 12.5L10.7322 11.4393Z" fill="#E05555"/>
<path fill-rule="evenodd" clip-rule="evenodd" d="M15.2799 8.96113L16 8.001L13 4L11.8 4.901L14.125 8.001L13.9472 8.23778C14.4343 8.40312 14.8839 8.6496 15.2799 8.96113Z" fill="#40B6E0" fill-opacity="0.8"/>
</svg>
