<svg width="16" height="16" viewBox="0 0 16 16" fill="none" xmlns="http://www.w3.org/2000/svg">
<path fill-rule="evenodd" clip-rule="evenodd" d="M12.5 16C14.433 16 16 14.433 16 12.5C16 10.567 14.433 9 12.5 9C10.567 9 9 10.567 9 12.5C9 14.433 10.567 16 12.5 16ZM10.7322 11.4393L11.4393 10.7322L12.5 11.7929L13.5607 10.7323L14.2678 11.4394L13.2071 12.5L14.2678 13.5607L13.5607 14.2678L12.5 13.2071L11.4393 14.2678L10.7322 13.5607L11.7929 12.5L10.7322 11.4393Z" fill="#E05555"/>
<path fill-rule="evenodd" clip-rule="evenodd" d="M15.2799 8.96113L16 8.001L13 4L11.8 4.901L14.125 8.001L13.9472 8.23778C14.4343 8.40312 14.8839 8.6496 15.2799 8.96113Z" fill="#40B6E0" fill-opacity="0.8"/>
<path fill-rule="evenodd" clip-rule="evenodd" d="M3 4L4.2 4.9L1.875 8L1.87531 8.00041L0.296359 8.39515L0 8L3 4Z" fill="#40B6E0" fill-opacity="0.8"/>
<path fill-rule="evenodd" clip-rule="evenodd" d="M7.19998 7L11 7.5L9 10.2777V9.30701L4.65133 7.67626C4.58561 7.60262 4.51479 7.53398 4.43909 7.47084L7.19998 1H12L7.19998 7Z" fill="#F4AF3D" fill-opacity="0.7"/>
<path fill-rule="evenodd" clip-rule="evenodd" d="M0 9.5V14.5L4 15.5L8 14V10L4 8.5L0 9.5ZM0.6 14.0315L1.69995 14.3065V9.69348L0.6 9.96847V14.0315ZM3.4 14.7315L2.29995 14.4565V9.54348L3.4 9.26847V14.7315Z" fill="#B99BF8" fill-opacity="0.7"/>
</svg>
