<svg width="16" height="16" viewBox="0 0 16 16" fill="none" xmlns="http://www.w3.org/2000/svg">
<path fill-rule="evenodd" clip-rule="evenodd" d="M13.3626 9.01621C13.9127 9.06564 14.4307 9.22643 14.8938 9.47586L16 8.001L13 4L11.8 4.901L14.125 8.001L13.3626 9.01621Z" fill="#40B6E0" fill-opacity="0.8"/>
<path d="M16 13C16 14.6569 14.6569 16 13 16C11.3431 16 10 14.6569 10 13C10 11.3431 11.3431 10 13 10C14.6569 10 16 11.3431 16 13Z" fill="#62B543"/>
<path fill-rule="evenodd" clip-rule="evenodd" d="M3 4L4.2 4.9L1.875 8L1.87531 8.00041L0.296359 8.39515L0 8L3 4Z" fill="#40B6E0" fill-opacity="0.8"/>
<path fill-rule="evenodd" clip-rule="evenodd" d="M7.19998 7L11 7.5L9 10.2777V9.30701L4.65133 7.67626C4.58561 7.60262 4.51479 7.53398 4.43909 7.47084L7.19998 1H12L7.19998 7Z" fill="#F4AF3D" fill-opacity="0.7"/>
<path fill-rule="evenodd" clip-rule="evenodd" d="M0 9.5V14.5L4 15.5L8 14V10L4 8.5L0 9.5ZM0.6 14.0315L1.69995 14.3065V9.69348L0.6 9.96847V14.0315ZM3.4 14.7315L2.29995 14.4565V9.54348L3.4 9.26847V14.7315Z" fill="#B99BF8" fill-opacity="0.7"/>
</svg>
