<svg width="16" height="16" viewBox="0 0 16 16" fill="none" xmlns="http://www.w3.org/2000/svg">
<path fill-rule="evenodd" clip-rule="evenodd" d="M3 4L4.2 4.9L2.625 7H2.07667V7.7311L1.875 8L2.07667 8.26881V8.84625H0.634686L0 8L3 4Z" fill="#40B6E0" fill-opacity="0.8"/>
<path fill-rule="evenodd" clip-rule="evenodd" d="M7.19998 7L11 7.5L8.7958 10.5614L8.5422 10.3617C8.39878 10.2481 8.09081 10.0593 7.60444 9.9976C7.52855 9.88123 7.44825 9.78177 7.37222 9.69912C7.26018 9.57732 7.15142 9.4851 7.06585 9.42019C7.05385 9.41109 7.04223 9.40247 7.03104 9.39432L7.18798 9L6.06655 8.82412L5.96726 8.76669L5.94096 8.80442L5.30751 8.70507V7H4.63998L7.19998 1H12L7.19998 7Z" fill="#F4AF3D" fill-opacity="0.7"/>
<path fill-rule="evenodd" clip-rule="evenodd" d="M1.23042 9.84625H2.46126V11.0771H1.23042V9.84625Z" fill="#34A2F2"/>
<path fill-rule="evenodd" clip-rule="evenodd" d="M3.07667 9.84625H4.3075V11.0771H3.07667V9.84625Z" fill="#34A2F2"/>
<path fill-rule="evenodd" clip-rule="evenodd" d="M3.07667 8H4.3075V9.23083H3.07667V8Z" fill="#34A2F2"/>
<path fill-rule="evenodd" clip-rule="evenodd" d="M7.92184 11.146L8 11.2075L7.96738 11.3029C7.91557 11.4339 7.83575 11.5519 7.73352 11.6488C7.58029 11.8008 7.3015 11.9817 6.84856 11.9817H6.77532C6.59193 12.4458 6.34515 13.3012 5.93159 13.7695C5.68404 14.0497 5.3929 14.288 5.06939 14.4754C4.67658 14.6979 4.24933 14.853 3.80532 14.9345C3.48607 14.9938 3.16198 15.023 2.83728 15.0219C2.11847 15.0219 1.80953 14.9413 1.30797 14.7019C0.806403 14.4631 0.504849 14.0686 0.234066 13.4557C0.0537491 13.0464 -0.0225625 12.4587 0.00574661 11.6913H5.54203C5.60603 11.6888 5.92174 11.6617 6.11806 11.5522C5.95497 11.2949 5.90882 10.9934 5.98513 10.6728C6.02516 10.5049 6.09341 10.3451 6.18698 10.2001L6.26206 10.0924L6.37592 10.1583C6.39623 10.1706 6.86086 10.4444 6.94271 11.0057C7.05349 10.9872 7.16426 10.978 7.27689 10.9774C7.70029 10.9774 7.9003 11.1288 7.92184 11.146ZM2.3751 13.6618C2.57912 13.6618 2.77479 13.5808 2.91905 13.4365C3.06332 13.2922 3.14437 13.0966 3.14437 12.8926C3.14437 12.6885 3.06332 12.4929 2.91905 12.3486C2.77479 12.2043 2.57912 12.1233 2.3751 12.1233C2.17107 12.1233 1.97541 12.2043 1.83114 12.3486C1.68688 12.4929 1.60583 12.6885 1.60583 12.8926C1.60583 13.0966 1.68688 13.2922 1.83114 13.4365C1.97541 13.5808 2.17107 13.6618 2.3751 13.6618Z" fill="#34A2F2"/>
<path d="M2.3751 13.508C2.71498 13.508 2.99051 13.2324 2.99051 12.8926C2.99051 12.5527 2.71498 12.2771 2.3751 12.2771C2.03521 12.2771 1.75968 12.5527 1.75968 12.8926C1.75968 13.2324 2.03521 13.508 2.3751 13.508Z" fill="#34A2F2"/>
<path d="M10 10H16V16H10V10Z" fill="#9AA7B0"/>
<path fill-rule="evenodd" clip-rule="evenodd" d="M13 4L11.8 4.9L14.125 8L13.3748 9H15.25L16 8L13 4Z" fill="#40B6E0" fill-opacity="0.8"/>
</svg>
