<svg width="16" height="16" viewBox="0 0 16 16" fill="none" xmlns="http://www.w3.org/2000/svg">
<path d="M12.875 16H14.125V14.75H12.875V16ZM13.5 8.5C12.837 8.5 12.2011 8.76339 11.7322 9.23223C11.2634 9.70107 11 10.337 11 11H12.25C12.25 10.312 12.813 9.75 13.5 9.75C14.188 9.75 14.75 10.313 14.75 11C14.75 12.25 12.875 12.094 12.875 14.125H14.125C14.125 12.719 16 12.562 16 11C16 10.337 15.7366 9.70107 15.2678 9.23223C14.7989 8.76339 14.163 8.5 13.5 8.5Z" fill="#AFB1B3"/>
<path fill-rule="evenodd" clip-rule="evenodd" d="M15.757 8.32498L16 8.001L13 4L11.8 4.901L13.7563 7.50939C14.4927 7.56345 15.1932 7.8492 15.757 8.32498Z" fill="#40B6E0" fill-opacity="0.8"/>
<path fill-rule="evenodd" clip-rule="evenodd" d="M3 4L4.2 4.9L1.875 8L1.87531 8.00041L0.296359 8.39515L0 8L3 4Z" fill="#40B6E0" fill-opacity="0.8"/>
<path fill-rule="evenodd" clip-rule="evenodd" d="M7.19998 7L11 7.5L9 10.2777V9.30701L4.65133 7.67626C4.58561 7.60262 4.51479 7.53398 4.43909 7.47084L7.19998 1H12L7.19998 7Z" fill="#F4AF3D" fill-opacity="0.7"/>
<path fill-rule="evenodd" clip-rule="evenodd" d="M0 9.5V14.5L4 15.5L8 14V10L4 8.5L0 9.5ZM0.6 14.0315L1.69995 14.3065V9.69348L0.6 9.96847V14.0315ZM3.4 14.7315L2.29995 14.4565V9.54348L3.4 9.26847V14.7315Z" fill="#B99BF8" fill-opacity="0.7"/>
</svg>
