<svg width="16" height="16" viewBox="0 0 16 16" fill="none" xmlns="http://www.w3.org/2000/svg">
<path fill-rule="evenodd" clip-rule="evenodd" d="M12.4705 2.60103C11.3776 2.46477 9.70411 2.46477 7.79156 3.48671C7.14265 2.80542 6.49375 2.09006 5.84485 1.34065C6.56206 1.10219 7.27926 1 7.99647 1C9.60165 1 11.2068 1.54503 12.4705 2.60103ZM4.61587 6.04143C4.24019 5.93924 3.83035 5.9733 3.45467 6.10956C2.83992 4.78105 2.87408 3.69098 2.97654 3.14595C3.20144 2.88958 3.42635 2.6935 3.6797 2.47263L3.7279 2.4306C4.10358 2.15808 4.51341 1.91963 4.92324 1.71524C5.40138 2.53279 6.05028 3.31627 6.80164 4.09976C6.18689 4.50853 5.50384 5.08763 4.85494 5.76892C4.82078 5.82001 4.77809 5.86259 4.7354 5.90517C4.69271 5.94775 4.65002 5.99034 4.61587 6.04143ZM1.23043 8.84625V9.76892C0.713753 7.82116 1.07471 5.71639 2.22526 4.03165C2.0545 4.71294 2.02035 5.66674 2.49848 6.82494C2.04276 7.41318 1.94474 8.16931 2.20444 8.84625H1.23043ZM7.99742 15C7.71138 15 7.42533 14.9827 7.14122 14.9483C7.335 14.7916 7.51568 14.6187 7.68117 14.4314C8.00268 14.0673 8.21875 13.6079 8.36418 13.2554L8.37751 13.2229C8.83744 13.461 9.40098 13.4343 9.84167 13.0924C9.93853 13.0199 10.0182 12.9303 10.0807 12.8601L10.0808 12.8601C10.1064 12.8312 10.1292 12.8056 10.149 12.7858C10.4473 12.853 10.7347 12.9039 11.0098 12.9425L11.875 13.75V13.8228C10.6955 14.6076 9.36053 15 7.99742 15ZM14.9996 7.83755C14.9846 6.38506 14.5135 4.92263 13.5635 3.69082C13.5294 3.65675 13.4952 3.62269 13.4952 3.58862C13.477 3.59318 13.4295 3.59469 13.3548 3.59706C12.8712 3.61243 11.2495 3.66396 9.08954 4.81495C9.9092 5.63249 10.6947 6.38191 11.4119 6.99507C12.0608 6.62036 12.8805 6.79069 13.3586 7.36978C13.3915 7.41243 13.4216 7.45602 13.4488 7.50037C13.4659 7.50013 13.4829 7.5 13.5 7.5C14.0237 7.5 14.5353 7.61738 14.9996 7.83755ZM10.7543 8.82952C10.6257 8.45249 10.6486 8.04642 10.7971 7.67613C9.90914 6.99484 8.98702 6.21135 8.09905 5.42787C7.51845 5.80258 6.9037 6.31355 6.2548 6.89264L6.14716 7H6.30751V9.56426L6.37473 9.61664L6.96726 8.76669L7.88546 9.29776L7.89419 9.30305C7.8904 9.30075 7.90167 9.30753 7.91234 9.31416C7.92379 9.32126 7.93751 9.32998 7.95316 9.34029C7.98434 9.36086 8.02264 9.38742 8.06585 9.42019C8.15142 9.4851 8.26018 9.57732 8.37222 9.69912C8.44825 9.78177 8.52855 9.88123 8.60444 9.9976C9.09081 10.0593 9.39878 10.2481 9.5422 10.3617L10.0104 10.7303C10.064 10.036 10.3236 9.37424 10.7543 8.82952Z" fill="#40B6E0" fill-opacity="0.7"/>
<path fill-rule="evenodd" clip-rule="evenodd" d="M2.23042 9.84625H3.46126V11.0771H2.23042V9.84625Z" fill="#34A2F2"/>
<path fill-rule="evenodd" clip-rule="evenodd" d="M4.07667 9.84625H5.3075V11.0771H4.07667V9.84625Z" fill="#34A2F2"/>
<path fill-rule="evenodd" clip-rule="evenodd" d="M4.07667 8H5.3075V9.23083H4.07667V8Z" fill="#34A2F2"/>
<path fill-rule="evenodd" clip-rule="evenodd" d="M8.92184 11.146L9 11.2075L8.96738 11.3029C8.91557 11.4339 8.83575 11.5519 8.73352 11.6488C8.58029 11.8008 8.3015 11.9817 7.84856 11.9817H7.77532C7.59193 12.4458 7.34515 13.3012 6.93159 13.7695C6.68404 14.0497 6.3929 14.288 6.06939 14.4754C5.67658 14.6979 5.24933 14.853 4.80532 14.9345C4.48607 14.9938 4.16198 15.023 3.83728 15.0219C3.11847 15.0219 2.80953 14.9413 2.30797 14.7019C1.8064 14.4631 1.50485 14.0686 1.23407 13.4557C1.05375 13.0464 0.977437 12.4587 1.00575 11.6913H6.54203C6.60603 11.6888 6.92174 11.6617 7.11806 11.5522C6.95497 11.2949 6.90882 10.9934 6.98513 10.6728C7.02516 10.5049 7.09341 10.3451 7.18698 10.2001L7.26206 10.0924L7.37592 10.1583C7.39623 10.1706 7.86086 10.4444 7.94271 11.0057C8.05349 10.9872 8.16426 10.978 8.27689 10.9774C8.70029 10.9774 8.9003 11.1288 8.92184 11.146ZM3.3751 13.6618C3.57912 13.6618 3.77479 13.5808 3.91905 13.4365C4.06332 13.2922 4.14437 13.0966 4.14437 12.8926C4.14437 12.6885 4.06332 12.4929 3.91905 12.3486C3.77479 12.2043 3.57912 12.1233 3.3751 12.1233C3.17107 12.1233 2.97541 12.2043 2.83114 12.3486C2.68688 12.4929 2.60583 12.6885 2.60583 12.8926C2.60583 13.0966 2.68688 13.2922 2.83114 13.4365C2.97541 13.5808 3.17107 13.6618 3.3751 13.6618Z" fill="#34A2F2"/>
<path d="M3.3751 13.508C3.71498 13.508 3.99051 13.2324 3.99051 12.8926C3.99051 12.5527 3.71498 12.2771 3.3751 12.2771C3.03521 12.2771 2.75968 12.5527 2.75968 12.8926C2.75968 13.2324 3.03521 13.508 3.3751 13.508Z" fill="#34A2F2"/>
<path d="M12.875 16H14.125V14.75H12.875V16ZM13.5 8.5C12.837 8.5 12.2011 8.76339 11.7322 9.23223C11.2634 9.70107 11 10.337 11 11H12.25C12.25 10.312 12.813 9.75 13.5 9.75C14.188 9.75 14.75 10.313 14.75 11C14.75 12.25 12.875 12.094 12.875 14.125H14.125C14.125 12.719 16 12.562 16 11C16 10.337 15.7366 9.70107 15.2678 9.23223C14.7989 8.76339 14.163 8.5 13.5 8.5Z" fill="#AFB1B3"/>
</svg>
