<!-- Copyright © 2000–2024 JetBrains s.r.o. -->
<svg width="16" height="16" viewBox="0 0 16 16" xmlns="http://www.w3.org/2000/svg">
  <path fill="#43454A" d="M6.22 14.5s-.09 0-.13-.03c-.13-.06-.2-.2-.18-.34l.99-5.64H4.57c-.12 0-.23-.07-.28-.18a.3.3 0 0 1 .04-.33l5.23-6.37a.32.32 0 0 1 .24-.11c.04 0 .09 0 .13.03.13.06.2.2.18.33L9.12 7.5h2.33c.12 0 .23.07.28.18s.04.24-.04.33l-5.23 6.38a.32.32 0 0 1-.24.11"/>
  <path fill="none" stroke="#CED0D6" stroke-linecap="round" stroke-miterlimit="10" d="M3.51 11.5.65 8l2.86-3.5"/>
  <path fill="none" stroke="#CED0D6" stroke-linecap="round" stroke-linejoin="round" d="m9.52 10.66-3.06 3.73a.32.32 0 0 1-.24.11s-.09 0-.13-.03c-.13-.06-.2-.2-.18-.34l.99-5.64H4.57c-.12 0-.23-.07-.28-.18a.3.3 0 0 1 .04-.33l5.23-6.37a.32.32 0 0 1 .24-.11c.04 0 .09 0 .13.03.13.06.2.2.18.33L9.12 7.5h2.33c.12 0 .23.07.28.18.02.04.03.09.03.14 0 .07-.02.14-.07.19"/>
  <path fill="none" stroke="#CED0D6" stroke-linecap="round" stroke-miterlimit="10" d="m15.01 7.63-2.5-3.13"/>
  <path fill="#25324D" d="M13.51 9c-.45 0-2.49 1.18-2.5 1.5v5c0 .63 2.28-1.15 2.5-1.38.22.23 2.5 2 2.5 1.38v-5c0-.31-2.04-1.5-2.5-1.5"/>
  <path fill="none" stroke="#548AF7" stroke-linecap="round" stroke-linejoin="round" d="m11.51 10.5 2-1.5 2 1.5m0 2.5-2-1.5-2 1.5m4 2.5-2-1.5-2 1.5"/>
</svg>
