<svg width="16" height="16" viewBox="0 0 16 16" fill="none" xmlns="http://www.w3.org/2000/svg">
<path fill-rule="evenodd" clip-rule="evenodd" d="M12.4642 6.51323C12.8074 6.21084 13 5.80238 13 5.37671C13 4.95104 12.8074 4.54258 12.4642 4.24019L9.29704 1.4669C8.9523 1.16785 8.48602 1 8 1C7.51398 1 7.04769 1.16785 6.70296 1.4669L3.53578 4.24019C3.19255 4.54258 3 4.95104 3 5.37671C3 5.80238 3.19255 6.21084 3.53578 6.51323L6.17007 8.85649C6.26631 8.9402 6.32056 9.05383 6.32089 9.17243V13.4552C6.32113 13.5996 6.38609 13.7382 6.50187 13.8414L7.70842 14.8945C7.7467 14.928 7.79216 14.9545 7.84219 14.9726C7.89222 14.9907 7.94584 15 8 15C8.05416 15 8.10778 14.9907 8.15781 14.9726C8.20784 14.9545 8.2533 14.928 8.29158 14.8945L8.55423 14.6653C8.20096 14.0229 8 13.2849 8 12.5C8 11.0866 8.65159 9.82545 9.67076 9.00046L12.4642 6.51323ZM8 2.14267C8.276 2.14267 8.54069 2.23837 8.73585 2.40871C8.93101 2.57906 9.04064 2.8101 9.04064 3.05101C9.04064 3.29191 8.93101 3.52295 8.73585 3.6933C8.54069 3.86365 8.276 3.95935 8 3.95935C7.724 3.95935 7.45931 3.86365 7.26415 3.6933C7.06899 3.52295 6.95935 3.29191 6.95935 3.05101C6.95935 2.8101 7.06899 2.57906 7.26415 2.40871C7.45931 2.23837 7.724 2.14267 8 2.14267Z" fill="#F4AF3D" fill-opacity="0.7"/>
<path fill-rule="evenodd" clip-rule="evenodd" d="M12.5 16C14.433 16 16 14.433 16 12.5C16 10.567 14.433 9 12.5 9C10.567 9 9 10.567 9 12.5C9 14.433 10.567 16 12.5 16ZM10.7322 11.4393L11.4393 10.7322L12.5 11.7929L13.5607 10.7323L14.2678 11.4394L13.2071 12.5L14.2678 13.5607L13.5607 14.2678L12.5 13.2071L11.4393 14.2678L10.7322 13.5607L11.7929 12.5L10.7322 11.4393Z" fill="#E05555"/>
</svg>
