<svg width="16" height="16" viewBox="0 0 16 16" fill="none" xmlns="http://www.w3.org/2000/svg">
<path d="M16 13.0039C16 14.6608 14.6569 16.0039 13 16.0039C11.3431 16.0039 10 14.6608 10 13.0039C10 11.3471 11.3431 10.0039 13 10.0039C14.6569 10.0039 16 11.3471 16 13.0039Z" fill="#62B543"/>
<path fill-rule="evenodd" clip-rule="evenodd" d="M13 5.37671C13 5.80238 12.8074 6.21084 12.4642 6.51323L9.45791 9.18998V9.40939L10.1416 10.0149C10.1785 10.0497 10.2014 10.0937 10.2072 10.1403C10.0531 10.2906 9.91118 10.4531 9.78289 10.6265L9.64894 10.7434C9.60158 10.7873 9.5752 10.8454 9.5752 10.9057C9.5752 10.9149 9.57582 10.9241 9.57703 10.9332C9.21082 11.5372 9 12.2459 9 13.0039C9 13.3966 9.0566 13.7761 9.16208 14.1347L8.29158 14.8945C8.2533 14.928 8.20784 14.9545 8.15781 14.9726C8.10778 14.9907 8.05416 15 8 15C7.94584 15 7.89222 14.9907 7.84219 14.9726C7.79216 14.9545 7.7467 14.928 7.70842 14.8945L6.50187 13.8414C6.38609 13.7382 6.32113 13.5996 6.32089 13.4552V9.17243C6.32056 9.05383 6.26631 8.9402 6.17007 8.85649L3.53578 6.51323C3.19255 6.21084 3 5.80238 3 5.37671C3 4.95104 3.19255 4.54258 3.53578 4.24019L6.70296 1.4669C7.04769 1.16785 7.51398 1 8 1C8.48602 1 8.9523 1.16785 9.29704 1.4669L12.4642 4.24019C12.8074 4.54258 13 4.95104 13 5.37671ZM8.73585 2.40871C8.54069 2.23837 8.276 2.14267 8 2.14267C7.724 2.14267 7.45931 2.23837 7.26415 2.40871C7.06899 2.57906 6.95935 2.8101 6.95935 3.05101C6.95935 3.29191 7.06899 3.52295 7.26415 3.6933C7.45931 3.86365 7.724 3.95935 8 3.95935C8.276 3.95935 8.54069 3.86365 8.73585 3.6933C8.93101 3.52295 9.04064 3.29191 9.04064 3.05101C9.04064 2.8101 8.93101 2.57906 8.73585 2.40871Z" fill="#F4AF3D" fill-opacity="0.7"/>
</svg>
