<svg width="16" height="16" viewBox="0 0 16 16" fill="none" xmlns="http://www.w3.org/2000/svg">
<path fill-rule="evenodd" clip-rule="evenodd" d="M8 8L9.37434 9.26267C9.14936 9.47994 8.94696 9.72045 8.77102 9.98032L8.5 9.71094V10.4364C8.18047 11.0545 8 11.7562 8 12.5C8 13.026 8.09023 13.5308 8.25606 14H7.5V9.71094L6.20312 11L5.5 10.2969L8 8ZM6 2H10V6H6V2ZM7 5H9V3H7V5ZM1 2H5V6H1V2ZM15 2V6H11V2H15Z" fill="#40B6E0" fill-opacity="0.6"/>
<path fill-rule="evenodd" clip-rule="evenodd" d="M12.5 16C14.433 16 16 14.433 16 12.5C16 10.567 14.433 9 12.5 9C10.567 9 9 10.567 9 12.5C9 14.433 10.567 16 12.5 16ZM10.7322 11.4393L11.4393 10.7322L12.5 11.7929L13.5607 10.7323L14.2678 11.4394L13.2071 12.5L14.2678 13.5607L13.5607 14.2678L12.5 13.2071L11.4393 14.2678L10.7322 13.5607L11.7929 12.5L10.7322 11.4393Z" fill="#E05555"/>
</svg>
