<svg width="16" height="16" viewBox="0 0 16 16" fill="none" xmlns="http://www.w3.org/2000/svg">
<path fill-rule="evenodd" clip-rule="evenodd" d="M10.2651 10.081L8 8L5.5 10.2969L6.20312 11L7.5 9.71094V14H8.5V9.71094L9.63399 10.8381C9.81279 10.5603 10.0251 10.306 10.2651 10.081ZM6 2H10V6H6V2ZM7 5H9V3H7V5ZM1 2H5V6H1V2ZM15 2V6H11V2H15Z" fill="#40B6E0" fill-opacity="0.6"/>
<path d="M16 13C16 14.6569 14.6569 16 13 16C11.3431 16 10 14.6569 10 13C10 11.3431 11.3431 10 13 10C14.6569 10 16 11.3431 16 13Z" fill="#62B543"/>
</svg>
