<svg width="16" height="16" viewBox="0 0 16 16" fill="none" xmlns="http://www.w3.org/2000/svg">
<path fill-rule="evenodd" clip-rule="evenodd" d="M10.1526 9.97772L8 8L5.5 10.2969L6.20312 11L7.5 9.71094V14H8.5V9.71094L9.79688 11L10.0063 10.7906C10.0229 10.5131 10.0724 10.2403 10.1526 9.97772ZM6 2H10V6H6V2ZM7 5H9V3H7V5ZM1 2H5V6H1V2ZM15 2V6H11V2H15Z" fill="#40B6E0" fill-opacity="0.6"/>
<path d="M12.875 16H14.125V14.75H12.875V16ZM13.5 8.5C12.837 8.5 12.2011 8.76339 11.7322 9.23223C11.2634 9.70107 11 10.337 11 11H12.25C12.25 10.312 12.813 9.75 13.5 9.75C14.188 9.75 14.75 10.313 14.75 11C14.75 12.25 12.875 12.094 12.875 14.125H14.125C14.125 12.719 16 12.562 16 11C16 10.337 15.7366 9.70107 15.2678 9.23223C14.7989 8.76339 14.163 8.5 13.5 8.5Z" fill="#AFB1B3"/>
</svg>
