<svg width="15" height="15" viewBox="0 0 15 15" fill="none" xmlns="http://www.w3.org/2000/svg">
<path fill-rule="evenodd" clip-rule="evenodd" d="M13.5667 1H1.43333C1.19401 1 1 1.18962 1 1.42353V6.44057C1.26866 6.06928 1.60866 5.75308 2 5.51234V2.2C2 2.08954 2.09292 2 2.20755 2H12.7925C12.9071 2 13 2.08954 13 2.2V8.8C13 8.91046 12.9071 9 12.7925 9H7.2541C7.20179 9.35329 7.09655 9.68944 6.94667 10H13.5667C13.806 10 14 9.81038 14 9.57647V1.42353C14 1.18962 13.806 1 13.5667 1Z" fill="#F4AF3D" fill-opacity="0.7"/>
<path d="M12.2765 7.19669C12.2766 7.25101 12.2555 7.30321 12.2178 7.34229C12.18 7.38137 12.1286 7.40426 12.0743 7.40613H7.37985C7.32431 7.40613 7.27103 7.38407 7.23175 7.34479C7.19248 7.30551 7.17041 7.25224 7.17041 7.19669C7.17041 7.14114 7.19248 7.08787 7.23175 7.04859C7.27103 7.00931 7.32431 6.98724 7.37985 6.98724H12.0743C12.1015 6.98723 12.1284 6.99269 12.1534 7.0033C12.1784 7.01391 12.201 7.02945 12.2199 7.049C12.2388 7.06855 12.2535 7.09171 12.2633 7.11708C12.273 7.14246 12.2775 7.16953 12.2765 7.19669" fill="#F4AF3D" fill-opacity="0.7"/>
<path d="M12.2765 5.89676C12.2766 5.95108 12.2555 6.00329 12.2178 6.04236C12.18 6.08144 12.1286 6.10433 12.0743 6.10621H7.37985C7.32431 6.10621 7.27103 6.08414 7.23175 6.04486C7.19248 6.00558 7.17041 5.95231 7.17041 5.89676C7.17041 5.84121 7.19248 5.78794 7.23175 5.74866C7.27103 5.70938 7.32431 5.68732 7.37985 5.68732H12.0743C12.1015 5.6873 12.1284 5.69276 12.1534 5.70337C12.1784 5.71398 12.201 5.72953 12.2199 5.74908C12.2388 5.76863 12.2535 5.79178 12.2633 5.81715C12.273 5.84253 12.2775 5.8696 12.2765 5.89676" fill="#F4AF3D" fill-opacity="0.7"/>
<path d="M12.2767 4.01163C12.2776 4.03879 12.2731 4.06586 12.2634 4.09124C12.2537 4.11661 12.2389 4.13976 12.2201 4.15931C12.2012 4.17886 12.1786 4.19441 12.1535 4.20502C12.1285 4.21563 12.1016 4.22109 12.0744 4.22107H4.20944C4.18194 4.22107 4.1547 4.21566 4.12929 4.20513C4.10388 4.19461 4.08079 4.17918 4.06134 4.15973C4.0419 4.14028 4.02647 4.11719 4.01594 4.09178C4.00542 4.06637 4 4.03913 4 4.01163C4 3.98412 4.00542 3.95689 4.01594 3.93148C4.02647 3.90607 4.0419 3.88298 4.06134 3.86353C4.08079 3.84408 4.10388 3.82865 4.12929 3.81813C4.1547 3.8076 4.18194 3.80219 4.20944 3.80219H12.0744C12.1016 3.80217 12.1285 3.80763 12.1535 3.81824C12.1786 3.82885 12.2012 3.8444 12.2201 3.86394C12.2389 3.88349 12.2537 3.90665 12.2634 3.93202C12.2731 3.9574 12.2776 3.98447 12.2767 4.01163" fill="#F4AF3D" fill-opacity="0.7"/>
<path d="M5.17301 10.2537C4.7924 10.5959 4.29864 10.7853 3.78678 10.7853C3.27493 10.7853 2.78117 10.5959 2.40056 10.2537L2.2278 13.7007C2.22363 13.7567 2.23695 13.8127 2.26591 13.8608C2.29487 13.9089 2.33805 13.9469 2.38949 13.9695C2.44094 13.992 2.49811 13.9981 2.55314 13.9868C2.60817 13.9755 2.65834 13.9474 2.69673 13.9064L3.76622 12.8204L4.84393 13.9146C4.88188 13.9549 4.93124 13.9827 4.98541 13.9941C5.03957 14.0056 5.09594 14.0002 5.14697 13.9787C5.19799 13.9572 5.24123 13.9207 5.27088 13.8739C5.30053 13.8272 5.31518 13.7725 5.31286 13.7172L5.17301 10.2537Z" fill="#E05555"/>
<path d="M3.81563 10.969C5.18324 10.969 6.29191 9.85666 6.29191 8.4845C6.29191 7.11235 5.18324 6 3.81563 6C2.44802 6 1.33936 7.11235 1.33936 8.4845C1.33936 9.85666 2.44802 10.969 3.81563 10.969Z" fill="#E05555"/>
<path d="M3.81583 10.3687C4.8563 10.3687 5.69978 9.52519 5.69978 8.48471C5.69978 7.44424 4.8563 6.60077 3.81583 6.60077C2.77536 6.60077 1.93188 7.44424 1.93188 8.48471C1.93188 9.52519 2.77536 10.3687 3.81583 10.3687Z" fill="#F5C475"/>
</svg>
