<svg width="16" height="16" viewBox="0 0 16 16" fill="none" xmlns="http://www.w3.org/2000/svg">
<path d="M3 6H13V7H3V6Z" fill="#9AA7B0" fill-opacity="0.8"/>
<path fill-rule="evenodd" clip-rule="evenodd" d="M12.5 16C14.433 16 16 14.433 16 12.5C16 10.567 14.433 9 12.5 9C10.567 9 9 10.567 9 12.5C9 14.433 10.567 16 12.5 16ZM10.7322 11.4393L11.4393 10.7322L12.5 11.7929L13.5607 10.7323L14.2678 11.4394L13.2071 12.5L14.2678 13.5607L13.5607 14.2678L12.5 13.2071L11.4393 14.2678L10.7322 13.5607L11.7929 12.5L10.7322 11.4393Z" fill="#E05555"/>
<path fill-rule="evenodd" clip-rule="evenodd" d="M8.75777 10H8V11H8.25606C8.3819 10.644 8.55127 10.3085 8.75777 10ZM9.67133 9H3V8H12.5C11.4284 8 10.4442 8.3746 9.67133 9ZM13 8.02746C12.8358 8.00932 12.669 8 12.5 8H13V8.02746Z" fill="#62B543" fill-opacity="0.7"/>
<path d="M6.5 16H5.5V15H6V11H5.5V10H6.5L7 10.5V15.5L6.5 16Z" fill="#9AA7B0"/>
<path d="M1.5 16H0.5L0 15.5V10.5L0.5 10H1.5V11H1V15H1.5V16Z" fill="#9AA7B0"/>
<path fill-rule="evenodd" clip-rule="evenodd" d="M13.75 2H2.25C1.91848 2 1.60054 2.1317 1.36612 2.36612C1.1317 2.60054 1 2.91848 1 3.25V9H2V5H14V9H15V3.25C15 2.91848 14.8683 2.60054 14.6339 2.36612C14.3995 2.1317 14.0815 2 13.75 2Z" fill="#9AA7B0" fill-opacity="0.8"/>
</svg>
