<svg width="16" height="16" viewBox="0 0 16 16" fill="none" xmlns="http://www.w3.org/2000/svg">
<path fill-rule="evenodd" clip-rule="evenodd" d="M10.3542 10H8V11H9.53513C9.75287 10.6236 10.0302 10.286 10.3542 10ZM13 9V8H3V9H13Z" fill="#62B543" fill-opacity="0.7"/>
<path d="M3 6H13V7H3V6Z" fill="#9AA7B0" fill-opacity="0.8"/>
<path d="M16 13C16 14.6569 14.6569 16 13 16C11.3431 16 10 14.6569 10 13C10 11.3431 11.3431 10 13 10C14.6569 10 16 11.3431 16 13Z" fill="#62B543"/>
<path d="M6.5 16H5.5V15H6V11H5.5V10H6.5L7 10.5V15.5L6.5 16Z" fill="#9AA7B0"/>
<path d="M1.5 16H0.5L0 15.5V10.5L0.5 10H1.5V11H1V15H1.5V16Z" fill="#9AA7B0"/>
<path fill-rule="evenodd" clip-rule="evenodd" d="M13.75 2H2.25C1.91848 2 1.60054 2.1317 1.36612 2.36612C1.1317 2.60054 1 2.91848 1 3.25V9H2V5H14V9.12602C14.3548 9.21733 14.6905 9.35609 15 9.53513V3.25C15 2.91848 14.8683 2.60054 14.6339 2.36612C14.3995 2.1317 14.0815 2 13.75 2ZM9 12V13C9 12.6547 9.04375 12.3196 9.12602 12H9Z" fill="#9AA7B0" fill-opacity="0.8"/>
</svg>
