<svg width="16" height="16" viewBox="0 0 16 16" fill="none" xmlns="http://www.w3.org/2000/svg">
<path fill-rule="evenodd" clip-rule="evenodd" d="M11.6972 8H3V9H10.6277C10.7451 8.83141 10.8779 8.67238 11.0251 8.52513C11.2286 8.32163 11.4546 8.14579 11.6972 8ZM10.1459 10H8V11H10C10 10.6583 10.05 10.3217 10.1459 10Z" fill="#62B543" fill-opacity="0.7"/>
<path fill-rule="evenodd" clip-rule="evenodd" d="M13 6H3V7H13V6Z" fill="#9AA7B0" fill-opacity="0.8"/>
<path fill-rule="evenodd" clip-rule="evenodd" d="M13.75 2H2.25C1.91848 2 1.60054 2.1317 1.36612 2.36612C1.1317 2.60054 1 2.91848 1 3.25V9H2V5H14V7.53588C14.3478 7.58608 14.6848 7.68821 15 7.83772V3.25C15 2.91848 14.8683 2.60054 14.6339 2.36612C14.3995 2.1317 14.0815 2 13.75 2ZM8 12V13H11.0714L10 12H8Z" fill="#9AA7B0" fill-opacity="0.8"/>
<path d="M12.875 16H14.125V14.75H12.875V16ZM13.5 8.5C12.837 8.5 12.2011 8.76339 11.7322 9.23223C11.2634 9.70107 11 10.337 11 11H12.25C12.25 10.312 12.813 9.75 13.5 9.75C14.188 9.75 14.75 10.313 14.75 11C14.75 12.25 12.875 12.094 12.875 14.125H14.125C14.125 12.719 16 12.562 16 11C16 10.337 15.7366 9.70107 15.2678 9.23223C14.7989 8.76339 14.163 8.5 13.5 8.5Z" fill="#AFB1B3"/>
<path d="M6.5 16H5.5V15H6V11H5.5V10H6.5L7 10.5V15.5L6.5 16Z" fill="#9AA7B0"/>
<path d="M1.5 16H0.5L0 15.5V10.5L0.5 10H1.5V11H1V15H1.5V16Z" fill="#9AA7B0"/>
</svg>
