<svg width="16" height="16" viewBox="0 0 16 16" fill="none" xmlns="http://www.w3.org/2000/svg">
<path fill-rule="evenodd" clip-rule="evenodd" d="M12.9904 7H14V9H12.9904L13 10.5C13 10.6889 12.9646 11.0057 12.8937 11.171C12.8229 11.3364 12.726 11.4804 12.6032 11.6032C12.4804 11.726 12.3364 11.8229 12.1711 11.8937C12.0057 11.9646 11.8286 12 11.6397 12L10 12L7 15V12L4.375 12C4.18607 12 4.00894 11.9646 3.84362 11.8937C3.67831 11.8229 3.53425 11.726 3.41144 11.6032C3.28863 11.4804 3.1918 11.3364 3.12095 11.171C3.0501 11.0057 3.01468 10.8286 3.01468 10.6397L3.01467 9H2V7H3.01467L3.01468 5.36032C3.01468 5.17139 3.0501 4.99426 3.12095 4.82895C3.1918 4.66363 3.28863 4.51957 3.41144 4.39676C3.53424 4.27395 3.67831 4.17713 3.84362 4.10628C4.00894 4.03542 4.18607 4 4.375 4H7.54909V2.69332C7.41211 2.61302 7.30229 2.50203 7.21964 2.36032C7.13698 2.21862 7.09565 2.06748 7.09565 1.90688C7.09565 1.77935 7.11927 1.66127 7.1665 1.55263C7.21373 1.44399 7.27868 1.34835 7.36134 1.26569C7.44399 1.18303 7.53964 1.11808 7.64828 1.07085C7.75692 1.02362 7.875 1 8.00253 1C8.13006 1 8.24815 1.02362 8.35678 1.07085C8.46542 1.11808 8.56107 1.18303 8.64373 1.26569C8.72639 1.34835 8.79133 1.44399 8.83856 1.55263C8.8858 1.66127 8.90941 1.77935 8.90941 1.90688C8.90941 2.06748 8.86808 2.21862 8.78543 2.36032C8.70277 2.50203 8.59295 2.61302 8.45597 2.69332V4H11.6301C11.819 4 11.9961 4.03543 12.1614 4.10628C12.3268 4.17713 12.4708 4.27395 12.5936 4.39676C12.7164 4.51957 12.8133 4.66363 12.8841 4.82895C12.955 4.99427 12.9904 5.17139 12.9904 5.36032V7ZM12 5.45633C12 5.33274 11.956 5.22579 11.8681 5.13547C11.7801 5.04516 11.6759 5 11.5556 5H8H4.44445C4.32408 5 4.21991 5.04516 4.13195 5.13547C4.04398 5.22579 4 5.33274 4 5.45633V10.5437C4 10.6673 4.04398 10.7742 4.13195 10.8645C4.21991 10.9548 4.32408 11 4.44445 11H6H8V12.5L9.5 11H11.5556C11.6759 11 11.7801 10.9548 11.8681 10.8645C11.956 10.7742 12 10.6673 12 10.5437V5.45633ZM6 7H7V6H6V7ZM10 7H9V6H10V7ZM6.77534 8.69835C6.3863 8.53581 6.0411 8.30303 5.73973 8L5 8.75207C5.4 9.15427 5.8589 9.46281 6.37671 9.67769C6.89452 9.89256 7.43562 10 8 10C8.56438 10 9.10548 9.89256 9.62329 9.67769C10.1411 9.46282 10.6 9.15427 11 8.75207L10.2603 8C9.9589 8.30303 9.6137 8.53581 9.22466 8.69835C8.83562 8.86088 8.4274 8.94215 8 8.94215C7.5726 8.94215 7.16438 8.86088 6.77534 8.69835Z" fill="#9AA7B0" fill-opacity="0.8"/>
</svg>
