<svg width="16" height="16" viewBox="0 0 16 16" fill="none" xmlns="http://www.w3.org/2000/svg">
<path fill-rule="evenodd" clip-rule="evenodd" d="M10.8245 9.14356C11.4451 9.77997 11.7869 10.5284 11.95 10.9667C12.1516 11.5087 11.7124 12 11.195 12H4.80414C4.28205 12 3.83954 11.4983 4.0564 10.9531C4.38188 10.1348 5.44485 8.08291 7.98 8.00221C9.26549 7.96128 10.1921 8.49517 10.8245 9.14356ZM10.0818 9.83339C9.61009 9.34967 8.9522 8.97238 8.01342 9.00227C6.37945 9.05429 5.5373 10.2087 5.15177 10.9994H10.8587C10.6982 10.6464 10.4478 10.2087 10.0818 9.83339Z" fill="#BBBBBB"/>
<path fill-rule="evenodd" clip-rule="evenodd" d="M7 5C7 5.55228 7.44772 6 8 6C8.55228 6 9 5.55228 9 5C9 4.44772 8.55228 4 8 4C7.44772 4 7 4.44772 7 5ZM8 3C6.89543 3 6 3.89543 6 5C6 6.10457 6.89543 7 8 7C9.10457 7 10 6.10457 10 5C10 3.89543 9.10457 3 8 3Z" fill="#BBBBBB"/>
</svg>
