<svg width="16" height="16" viewBox="0 0 16 16" fill="none" xmlns="http://www.w3.org/2000/svg">
    <mask id="path-1-inside-1_892_37212" fill="white">
        <path fill-rule="evenodd" clip-rule="evenodd"
              d="M11 4C11 5.65685 9.65687 7 8 7C6.34315 7 5 5.65685 5 4C5 2.34315 6.34315 1 8 1C9.65687 1 11 2.34315 11 4ZM10 4C10 5.10457 9.10458 6 8 6C6.89543 6 6 5.10457 6 4C6 2.89543 6.89543 2 8 2C9.10458 2 10 2.89543 10 4Z"/>
    </mask>
    <path d="M10 4C10 5.10457 9.10458 6 8 6V8C10.2092 8 12 6.20913 12 4H10ZM8 6C6.89544 6 6 5.10456 6 4H4C4 6.20914 5.79087 8 8 8V6ZM6 4C6 2.89544 6.89544 2 8 2V0C5.79087 0 4 1.79086 4 4H6ZM8 2C9.10458 2 10 2.89543 10 4H12C12 1.79087 10.2092 0 8 0V2ZM9.00001 4C9.00001 4.55228 8.55229 5 8 5V7C9.65686 7 11 5.65686 11 4H9.00001ZM8 5C7.44772 5 7 4.55228 7 4H5C5 5.65686 6.34315 7 8 7V5ZM7 4C7 3.44772 7.44772 3 8 3V1C6.34315 1 5 2.34314 5 4H7ZM8 3C8.55229 3 9.00001 3.44772 9.00001 4H11C11 2.34314 9.65686 1 8 1V3Z"
          fill="#BBBBBB" mask="url(#path-1-inside-1_892_37212)"/>
    <path d="M12.2036 10.6332L12.2036 10.6331C11.4208 9.57209 10.1409 8.66667 7.99999 8.66667C5.85912 8.66667 4.57919 9.57209 3.79646 10.6331L3.79645 10.6332C3.05703 11.6355 2.71334 12.8415 2.55491 13.7472L2.50086 14.0562C2.49812 14.0127 2.50005 13.9664 2.50745 13.9175C2.65251 12.9586 3.00208 11.5903 3.82675 10.4724C4.63319 9.37918 5.90954 8.5 7.99999 8.5C10.0904 8.5 11.3668 9.37918 12.1732 10.4724C12.9979 11.5903 13.3475 12.9586 13.4926 13.9175C13.5 13.9665 13.5019 14.0129 13.4991 14.0564L13.445 13.7472C13.2866 12.8415 12.943 11.6356 12.2036 10.6332ZM2.92373 14.5C2.80761 14.5 2.68494 14.441 2.60158 14.3333H3.04744H12.9525H13.3984C13.315 14.441 13.1924 14.5 13.0763 14.5H2.92373Z"
          stroke="#BBBBBB"/>
</svg>
