<svg width="16" height="16" viewBox="0 0 16 16" fill="none" xmlns="http://www.w3.org/2000/svg">
<mask id="path-1-inside-1_914_21176" fill="white">
<path fill-rule="evenodd" clip-rule="evenodd" d="M10.6663 4.66667C10.6663 6.13942 9.47245 7.33333 7.99968 7.33333C6.52692 7.33333 5.33301 6.13942 5.33301 4.66667C5.33301 3.19391 6.52692 2 7.99968 2C9.47245 2 10.6663 3.19391 10.6663 4.66667ZM9.77746 4.66667C9.77746 5.64851 8.98152 6.44444 7.99968 6.44444C7.01784 6.44444 6.2219 5.64851 6.2219 4.66667C6.2219 3.68483 7.01784 2.88889 7.99968 2.88889C8.98152 2.88889 9.77746 3.68483 9.77746 4.66667Z"/>
</mask>
<path d="M9.66634 4.66667C9.66634 5.58714 8.92016 6.33333 7.99968 6.33333V8.33333C10.0247 8.33333 11.6663 6.6917 11.6663 4.66667H9.66634ZM7.99968 6.33333C7.0792 6.33333 6.33301 5.58714 6.33301 4.66667H4.33301C4.33301 6.69171 5.97464 8.33333 7.99968 8.33333V6.33333ZM6.33301 4.66667C6.33301 3.7462 7.0792 3 7.99968 3V1C5.97464 1 4.33301 2.64162 4.33301 4.66667H6.33301ZM7.99968 3C8.92016 3 9.66634 3.74619 9.66634 4.66667H11.6663C11.6663 2.64163 10.0247 1 7.99968 1V3ZM8.77746 4.66667C8.77746 5.09622 8.42924 5.44444 7.99968 5.44444V7.44444C9.5338 7.44444 10.7775 6.20079 10.7775 4.66667H8.77746ZM7.99968 5.44444C7.57012 5.44444 7.2219 5.09622 7.2219 4.66667H5.2219C5.2219 6.20079 6.46555 7.44444 7.99968 7.44444V5.44444ZM7.2219 4.66667C7.2219 4.23711 7.57012 3.88889 7.99968 3.88889V1.88889C6.46555 1.88889 5.2219 3.13254 5.2219 4.66667H7.2219ZM7.99968 3.88889C8.42924 3.88889 8.77746 4.23711 8.77746 4.66667H10.7775C10.7775 3.13254 9.5338 1.88889 7.99968 1.88889V3.88889Z" fill="#BBBBBB" mask="url(#path-1-inside-1_914_21176)"/>
<mask id="path-3-inside-2_914_21176" fill="white">
<path fill-rule="evenodd" clip-rule="evenodd" d="M8.00032 8.66663C3.9826 8.66663 2.94605 11.603 2.67861 13.1182C2.59325 13.6018 2.98967 14 3.48808 14H12.5126C13.011 14 13.4073 13.6018 13.3221 13.1182C13.0546 11.603 12.018 8.66663 8.00032 8.66663ZM11.3792 10.899C11.9787 11.5956 12.2675 12.449 12.4026 13.1111H3.59805C3.73316 12.449 4.02199 11.5956 4.6215 10.899C5.23936 10.1811 6.24808 9.55551 8.00032 9.55551C9.75255 9.55551 10.7613 10.1811 11.3792 10.899Z"/>
</mask>
<path d="M2.67861 13.1182L1.69384 12.9444L1.69384 12.9444L2.67861 13.1182ZM13.3221 13.1182L14.3069 12.9445L14.3068 12.9443L13.3221 13.1182ZM11.3792 10.899L12.1371 10.2467L12.1371 10.2466L11.3792 10.899ZM12.4026 13.1111V14.1111H13.6272L13.3824 12.9111L12.4026 13.1111ZM3.59805 13.1111L2.61824 12.9111L2.37335 14.1111H3.59805V13.1111ZM4.6215 10.899L3.86355 10.2467L3.86354 10.2467L4.6215 10.899ZM8.00032 7.66663C5.71259 7.66663 4.16783 8.51847 3.17516 9.67189C2.2162 10.7861 1.84331 12.0975 1.69384 12.9444L3.66339 13.292C3.78135 12.6237 4.06045 11.7092 4.69106 10.9765C5.28795 10.283 6.27032 9.66663 8.00032 9.66663V7.66663ZM1.69384 12.9444C1.48015 14.1551 2.49013 15 3.48808 15V13C3.50449 13 3.54735 13.007 3.59227 13.0547C3.61546 13.0793 3.63886 13.115 3.6534 13.1615C3.66846 13.2096 3.66973 13.2561 3.66339 13.292L1.69384 12.9444ZM3.48808 15H12.5126V13H3.48808V15ZM12.5126 15C13.5107 15 14.5203 14.155 14.3069 12.9445L12.3372 13.2918C12.3309 13.256 12.3322 13.2096 12.3473 13.1614C12.3618 13.115 12.3852 13.0793 12.4083 13.0547C12.4533 13.007 12.4961 13 12.5126 13V15ZM14.3068 12.9443C14.1573 12.0975 13.7844 10.7861 12.8255 9.67189C11.8328 8.51847 10.288 7.66663 8.00032 7.66663V9.66663C9.7303 9.66663 10.7127 10.283 11.3096 10.9765C11.9402 11.7093 12.2193 12.6237 12.3373 13.292L14.3068 12.9443ZM10.6212 11.5513C11.0677 12.0701 11.3062 12.7398 11.4227 13.311L13.3824 12.9111C13.2287 12.1582 12.8897 11.1211 12.1371 10.2467L10.6212 11.5513ZM12.4026 12.1111H3.59805V14.1111H12.4026V12.1111ZM4.57785 13.311C4.69441 12.7399 4.93297 12.0701 5.37946 11.5513L3.86354 10.2467C3.11101 11.1211 2.77191 12.1582 2.61824 12.9111L4.57785 13.311ZM5.37945 11.5513C5.79952 11.0632 6.5271 10.5555 8.00032 10.5555V8.55551C5.96906 8.55551 4.6792 9.29894 3.86355 10.2467L5.37945 11.5513ZM8.00032 10.5555C9.47352 10.5555 10.2011 11.0632 10.6213 11.5513L12.1371 10.2466C11.3214 9.29894 10.0316 8.55551 8.00032 8.55551V10.5555Z" fill="#BBBBBB" mask="url(#path-3-inside-2_914_21176)"/>
</svg>
