<svg width="16" height="16" viewBox="0 0 16 16" fill="none" xmlns="http://www.w3.org/2000/svg">
<path fill-rule="evenodd" clip-rule="evenodd" d="M15 2H1V14H15V2ZM14 5H2V13H14V5Z" fill="#9AA7B0" fill-opacity="0.8"/>
<path fill-rule="evenodd" clip-rule="evenodd" d="M10.25 6.5L8.65 8.95L10.25 11.5H9.05L8 9.593L6.95 11.5H5.75L7.35 8.95L5.75 6.5H6.95L8 8.314L9.05 6.5H10.25Z" fill="#9AA7B0" fill-opacity="0.8"/>
<path fill-rule="evenodd" clip-rule="evenodd" d="M11.1227 11.5H12.3311C12.7565 10.7646 13 9.91072 13 9C13 8.08928 12.7565 7.23543 12.3311 6.5H11.1227C11.6716 7.1848 12 8.05405 12 9C12 9.94595 11.6716 10.8152 11.1227 11.5ZM3.66891 11.5H4.87731C4.32836 10.8152 4 9.94595 4 9C4 8.05405 4.32836 7.1848 4.87731 6.5H3.66891C3.24349 7.23543 3 8.08928 3 9C3 9.91072 3.24349 10.7646 3.66891 11.5Z" fill="#9AA7B0" fill-opacity="0.8"/>
</svg>
