<svg width="16" height="16" viewBox="0 0 16 16" fill="none" xmlns="http://www.w3.org/2000/svg">
<path d="M8 1C6.61553 1 5.26215 1.41054 4.11101 2.17971C2.95987 2.94888 2.06266 4.04213 1.53285 5.32122C1.00303 6.6003 0.86441 8.00776 1.13451 9.36563C1.4046 10.7235 2.07129 11.9708 3.05026 12.9497C4.02922 13.9287 5.2765 14.5954 6.63437 14.8655C7.99224 15.1356 9.3997 14.997 10.6788 14.4672C11.9579 13.9373 13.0511 13.0401 13.8203 11.889C14.5895 10.7378 15 9.38447 15 8C14.9978 6.14415 14.2596 4.36494 12.9473 3.05266C11.6351 1.74038 9.85585 1.00218 8 1V1ZM8 14.0447C6.80447 14.0447 5.63579 13.6902 4.64174 13.026C3.6477 12.3618 2.87293 11.4177 2.41542 10.3132C1.95791 9.20868 1.83821 7.99329 2.07144 6.82074C2.30468 5.64818 2.88038 4.57111 3.72575 3.72575C4.57112 2.88038 5.64818 2.30468 6.82074 2.07144C7.9933 1.8382 9.20868 1.95791 10.3132 2.41542C11.4177 2.87293 12.3618 3.64769 13.026 4.64174C13.6902 5.63579 14.0447 6.80447 14.0447 8C14.0447 9.60315 13.4079 11.1406 12.2743 12.2743C11.1407 13.4079 9.60316 14.0447 8 14.0447Z" fill="#40B6E0" fill-opacity="0.8"/>
<path d="M8 14C11.3137 14 14 11.3137 14 8C14 4.68629 11.3137 2 8 2C4.68629 2 2 4.68629 2 8C2 11.3137 4.68629 14 8 14Z" fill="white"/>
<path d="M11.3408 6.45797C11.6136 6.18262 11.7667 5.81069 11.7667 5.42309C11.7667 5.03549 11.6136 4.66357 11.3408 4.38822L8.82357 1.86297C8.54958 1.59067 8.17898 1.43784 7.7927 1.43784C7.40641 1.43784 7.03581 1.59067 6.76182 1.86297V1.86297L4.24456 4.38822C3.97177 4.66357 3.81873 5.03549 3.81873 5.42309C3.81873 5.81069 3.97177 6.18262 4.24456 6.45797L6.33828 8.59164C6.41477 8.66787 6.45789 8.77134 6.45815 8.87933V12.7791C6.45834 12.9106 6.50997 13.0368 6.60199 13.1307L7.56095 14.0897C7.59138 14.1201 7.6275 14.1442 7.66727 14.1607C7.70703 14.1772 7.74965 14.1857 7.7927 14.1857C7.83574 14.1857 7.87836 14.1772 7.91812 14.1607C7.95789 14.1442 7.99402 14.1201 8.02444 14.0897L8.95143 13.1627L9.49484 12.6193C9.5291 12.5823 9.54814 12.5338 9.54814 12.4834C9.54814 12.433 9.5291 12.3845 9.49484 12.3475L9.10327 11.956C9.06562 11.916 9.04466 11.8631 9.04466 11.8081C9.04466 11.7532 9.06562 11.7003 9.10327 11.6603L9.49484 11.2687C9.5291 11.2318 9.54814 11.1833 9.54814 11.1329C9.54814 11.0825 9.5291 11.034 9.49484 10.997L9.10327 10.6054C9.06562 10.5654 9.04466 10.5126 9.04466 10.4576C9.04466 10.4027 9.06562 10.3498 9.10327 10.3098L9.49484 9.9182C9.5291 9.88125 9.54814 9.83273 9.54814 9.78234C9.54814 9.73196 9.5291 9.68344 9.49484 9.64649L8.95143 9.09509V8.89531L11.3408 6.45797ZM7.7927 2.4783C8.01206 2.4783 8.22243 2.56544 8.37754 2.72055C8.53265 2.87567 8.61979 3.08604 8.61979 3.3054C8.61979 3.52476 8.53265 3.73514 8.37754 3.89025C8.22243 4.04536 8.01206 4.1325 7.7927 4.1325C7.57334 4.1325 7.36296 4.04536 7.20785 3.89025C7.05274 3.73514 6.9656 3.52476 6.9656 3.3054C6.9656 3.08604 7.05274 2.87567 7.20785 2.72055C7.36296 2.56544 7.57334 2.4783 7.7927 2.4783V2.4783Z" fill="#F5C475"/>
<path opacity="0.75" d="M7.13746 12.8269C7.1639 12.8497 7.19628 12.8644 7.2308 12.8695C7.26533 12.8745 7.30057 12.8696 7.33242 12.8554C7.36427 12.8411 7.3914 12.8181 7.41065 12.789C7.4299 12.7599 7.44047 12.726 7.44113 12.6911V9.49456C7.4409 9.46271 7.43274 9.43143 7.41739 9.40352C7.40205 9.37562 7.37999 9.35198 7.35322 9.33473C7.3258 9.31676 7.29389 9.30681 7.26111 9.30602C7.22834 9.30523 7.19599 9.31362 7.16772 9.33024C7.13946 9.34687 7.11641 9.37106 7.10118 9.4001C7.08595 9.42914 7.07914 9.46185 7.08152 9.49456V12.6911C7.08434 12.7414 7.10405 12.7892 7.13746 12.8269V12.8269Z" fill="#F4AF3D"/>
<path opacity="0.75" d="M9.68643 5.22736H6.00244C5.87887 5.22736 5.77869 5.33011 5.77869 5.45686V5.49785C5.77869 5.6246 5.87887 5.72736 6.00244 5.72736H9.68643C9.81001 5.72736 9.91018 5.6246 9.91018 5.49785V5.45686C9.91018 5.33011 9.81001 5.22736 9.68643 5.22736Z" fill="#F4AF3D"/>
<path opacity="0.75" d="M9.68643 6.01859H6.00244C5.87887 6.01859 5.77869 6.12134 5.77869 6.24809V6.28908C5.77869 6.41583 5.87887 6.51859 6.00244 6.51859H9.68643C9.81001 6.51859 9.91018 6.41583 9.91018 6.28908V6.24809C9.91018 6.12134 9.81001 6.01859 9.68643 6.01859Z" fill="#F4AF3D"/>
</svg>
