<svg width="16" height="16" viewBox="0 0 16 16" fill="none" xmlns="http://www.w3.org/2000/svg">
    <path fill-rule="evenodd" clip-rule="evenodd" d="M4.11101 2.17971C5.26216 1.41054 6.61553 1 8 1C9.85585 1.00218 11.6351 1.74038 12.9473 3.05266C14.2596 4.36494 14.9978 6.14415 15 8C15 9.38447 14.5895 10.7378 13.8203 11.889C13.0511 13.0401 11.9579 13.9373 10.6788 14.4672C9.3997 14.997 7.99224 15.1356 6.63437 14.8655C5.2765 14.5954 4.02922 13.9287 3.05026 12.9497C2.07129 11.9708 1.4046 10.7235 1.13451 9.36563C0.86441 8.00776 1.00303 6.6003 1.53285 5.32122C2.06266 4.04213 2.95987 2.94888 4.11101 2.17971ZM4.64174 13.026C5.63579 13.6902 6.80447 14.0447 8 14.0447C9.60316 14.0447 11.1407 13.4079 12.2743 12.2743C13.4079 11.1406 14.0447 9.60315 14.0447 8C14.0447 6.80447 13.6902 5.63579 13.026 4.64174C12.3618 3.64769 11.4177 2.87293 10.3132 2.41542C9.20868 1.95791 7.9933 1.8382 6.82074 2.07144C5.64818 2.30468 4.57112 2.88038 3.72575 3.72575C2.88038 4.57111 2.30468 5.64818 2.07144 6.82073C1.83821 7.99329 1.95791 9.20868 2.41542 10.3132C2.87293 11.4177 3.6477 12.3618 4.64174 13.026Z" fill="#40B6E0" fill-opacity="0.8"/>
    <path d="M11.8264 6.72563C12.1206 6.46643 12.2857 6.11633 12.2857 5.75146C12.2857 5.3866 12.1206 5.0365 11.8264 4.7773L9.11169 2.4002C8.81621 2.14387 8.41654 2 7.99995 2C7.58336 2 7.18369 2.14387 6.8882 2.4002V2.4002L4.17347 4.7773C3.87928 5.0365 3.71423 5.3866 3.71423 5.75146C3.71423 6.11633 3.87928 6.46643 4.17347 6.72563L6.43144 8.73413C6.51393 8.80589 6.56043 8.90329 6.56071 9.00494V12.6759C6.56092 12.7997 6.61659 12.9185 6.71584 13.0069L7.75002 13.9096C7.78283 13.9383 7.8218 13.961 7.86468 13.9765C7.90756 13.992 7.95353 14 7.99995 14C8.04637 14 8.09233 13.992 8.13522 13.9765C8.1781 13.961 8.21706 13.9383 8.24987 13.9096L9.24958 13.037L9.83562 12.5255C9.87257 12.4907 9.8931 12.445 9.8931 12.3976C9.8931 12.3502 9.87257 12.3045 9.83562 12.2697L9.41333 11.9011C9.37273 11.8634 9.35012 11.8137 9.35012 11.7619C9.35012 11.7102 9.37273 11.6604 9.41333 11.6228L9.83562 11.2542C9.87257 11.2194 9.8931 11.1737 9.8931 11.1263C9.8931 11.0789 9.87257 11.0332 9.83562 10.9984L9.41333 10.6298C9.37273 10.5921 9.35012 10.5424 9.35012 10.4906C9.35012 10.4389 9.37273 10.3891 9.41333 10.3515L9.83562 9.98286C9.87257 9.94809 9.8931 9.90241 9.8931 9.85498C9.8931 9.80755 9.87257 9.76187 9.83562 9.7271L9.24958 9.20805V9.01999L11.8264 6.72563ZM7.99995 2.97943C8.23652 2.97943 8.46339 3.06146 8.63067 3.20747C8.79795 3.35348 8.89193 3.55151 8.89193 3.75801C8.89193 3.9645 8.79795 4.16253 8.63067 4.30854C8.46339 4.45456 8.23652 4.53658 7.99995 4.53658C7.76338 4.53658 7.5365 4.45456 7.36922 4.30854C7.20194 4.16253 7.10797 3.9645 7.10797 3.75801C7.10797 3.55151 7.20194 3.35348 7.36922 3.20747C7.5365 3.06146 7.76338 2.97943 7.99995 2.97943V2.97943Z" fill="#F4AF3D" fill-opacity="0.7"/>
</svg>
