<svg xmlns="http://www.w3.org/2000/svg" width="16" height="16" viewBox="0 0 16 16">
  <g>
    <rect width="16" height="16" fill="#ffdbff" opacity="0"/>
    <path d="M15,14H10v1h5Zm0-6.5A3.5,3.5,0,0,1,11.5,11h-.279l.434-.5-.434-.5H11.5a2.493,2.493,0,0,0,.817-4.85l-.356-.125L12,4.531A2.488,2.488,0,0,0,7.321,3.3l-.315.571-.469-.452A1.5,1.5,0,0,0,4,4.5a1.471,1.471,0,0,0,.218.765l.412.687-.8.068A1.98,1.98,0,0,0,2,8a2,2,0,0,0,2,2H5.243l.434.5-.434.5H4A3,3,0,0,1,1,8,2.969,2.969,0,0,1,3.09,5.151,2.4,2.4,0,0,1,3,4.5,2.5,2.5,0,0,1,5.5,2a2.473,2.473,0,0,1,1.26.343A3.489,3.489,0,0,1,13,4.349,3.494,3.494,0,0,1,15,7.5ZM6.962,7,10,10.5,6.961,14,6,13.187,8.332,10.5,6,7.814Z" fill="#afb1b3"/>
  </g>
</svg>
