<svg width="16" height="16" viewBox="0 0 16 16" fill="none" xmlns="http://www.w3.org/2000/svg">
<path d="M12.0797 6.51323C12.3793 6.21084 12.5473 5.80238 12.5473 5.37671C12.5473 4.95104 12.3793 4.54258 12.0797 4.24019L9.31517 1.4669C9.01427 1.16785 8.60727 1 8.18304 1C7.75881 1 7.35181 1.16785 7.0509 1.4669V1.4669L4.28639 4.24019C3.9868 4.54258 3.81873 4.95104 3.81873 5.37671C3.81873 5.80238 3.9868 6.21084 4.28639 6.51323L6.58576 8.85649C6.66977 8.9402 6.71712 9.05383 6.71741 9.17243V13.4552C6.71761 13.5996 6.77431 13.7382 6.87538 13.8414L7.92853 14.8945C7.96194 14.928 8.00162 14.9545 8.04529 14.9726C8.08896 14.9907 8.13577 15 8.18304 15C8.23031 15 8.27712 14.9907 8.32079 14.9726C8.36446 14.9545 8.40413 14.928 8.43755 14.8945L9.45559 13.8765L10.0524 13.2797C10.09 13.2391 10.1109 13.1858 10.1109 13.1305C10.1109 13.0752 10.09 13.0219 10.0524 12.9813L9.62234 12.5513C9.58099 12.5073 9.55797 12.4493 9.55797 12.3889C9.55797 12.3286 9.58099 12.2705 9.62234 12.2266L10.0524 11.7965C10.09 11.756 10.1109 11.7027 10.1109 11.6473C10.1109 11.592 10.09 11.5387 10.0524 11.4981L9.62234 11.0681C9.58099 11.0241 9.55797 10.9661 9.55797 10.9057C9.55797 10.8454 9.58099 10.7873 9.62234 10.7434L10.0524 10.3133C10.09 10.2728 10.1109 10.2195 10.1109 10.1641C10.1109 10.1088 10.09 10.0555 10.0524 10.0149L9.45559 9.40939V9.18998L12.0797 6.51323ZM8.18304 2.14267C8.42394 2.14267 8.65498 2.23837 8.82533 2.40871C8.99568 2.57906 9.09138 2.8101 9.09138 3.05101C9.09138 3.29191 8.99568 3.52295 8.82533 3.6933C8.65498 3.86365 8.42394 3.95935 8.18304 3.95935C7.94213 3.95935 7.71109 3.86365 7.54074 3.6933C7.3704 3.52295 7.2747 3.29191 7.2747 3.05101C7.2747 2.8101 7.3704 2.57906 7.54074 2.40871C7.71109 2.23837 7.94213 2.14267 8.18304 2.14267V2.14267Z" fill="#F4AF3D" fill-opacity="0.7"/>
<path opacity="0.75" d="M7.46343 13.5078C7.49248 13.5328 7.52803 13.549 7.56595 13.5545C7.60386 13.56 7.64257 13.5547 7.67754 13.539C7.71252 13.5234 7.74232 13.4981 7.76346 13.4661C7.7846 13.4342 7.79621 13.3969 7.79693 13.3586V9.84807C7.79668 9.8131 7.78772 9.77874 7.77086 9.7481C7.75401 9.71745 7.72979 9.69149 7.70039 9.67255C7.67027 9.65281 7.63523 9.64189 7.59924 9.64102C7.56324 9.64015 7.52771 9.64936 7.49667 9.66762C7.46563 9.68588 7.44032 9.71245 7.42359 9.74434C7.40686 9.77623 7.39938 9.81216 7.402 9.84807V13.3586C7.4051 13.4138 7.42675 13.4664 7.46343 13.5078V13.5078Z" fill="#F4AF3D"/>
<path opacity="0.75" d="M10.2628 5.16174H6.21693C6.08121 5.16174 5.97119 5.27176 5.97119 5.40748V5.45136C5.97119 5.58707 6.08121 5.69709 6.21693 5.69709H10.2628C10.3985 5.69709 10.5085 5.58707 10.5085 5.45136V5.40748C10.5085 5.27176 10.3985 5.16174 10.2628 5.16174Z" fill="#F4AF3D"/>
<path opacity="0.75" d="M10.2628 6.03067H6.21693C6.08121 6.03067 5.97119 6.14069 5.97119 6.2764V6.32029C5.97119 6.456 6.08121 6.56602 6.21693 6.56602H10.2628C10.3985 6.56602 10.5085 6.456 10.5085 6.32029V6.2764C10.5085 6.14069 10.3985 6.03067 10.2628 6.03067Z" fill="#F4AF3D"/>
</svg>
