<svg width="16" height="16" viewBox="0 0 16 16" fill="none" xmlns="http://www.w3.org/2000/svg">
<path d="M12.4642 6.51323C12.8074 6.21084 13 5.80238 13 5.37671C13 4.95104 12.8074 4.54258 12.4642 4.24019L9.29704 1.4669C8.9523 1.16785 8.48602 1 8 1C7.51398 1 7.04769 1.16785 6.70296 1.4669V1.4669L3.53578 4.24019C3.19255 4.54258 3 4.95104 3 5.37671C3 5.80238 3.19255 6.21084 3.53578 6.51323L6.17007 8.85649C6.26631 8.9402 6.32056 9.05383 6.32089 9.17243V13.4552C6.32113 13.5996 6.38609 13.7382 6.50187 13.8414L7.70842 14.8945C7.7467 14.928 7.79216 14.9545 7.84219 14.9726C7.89222 14.9907 7.94584 15 8 15C8.05416 15 8.10778 14.9907 8.15781 14.9726C8.20784 14.9545 8.2533 14.928 8.29158 14.8945L9.45791 13.8765L10.1416 13.2797C10.1847 13.2391 10.2087 13.1858 10.2087 13.1305C10.2087 13.0752 10.1847 13.0219 10.1416 12.9813L9.64894 12.5513C9.60158 12.5073 9.5752 12.4493 9.5752 12.3889C9.5752 12.3286 9.60158 12.2705 9.64894 12.2266L10.1416 11.7965C10.1847 11.756 10.2087 11.7027 10.2087 11.6473C10.2087 11.592 10.1847 11.5387 10.1416 11.4981L9.64894 11.0681C9.60158 11.0241 9.5752 10.9661 9.5752 10.9057C9.5752 10.8454 9.60158 10.7873 9.64894 10.7434L10.1416 10.3133C10.1847 10.2728 10.2087 10.2195 10.2087 10.1641C10.2087 10.1088 10.1847 10.0555 10.1416 10.0149L9.45791 9.40939V9.18998L12.4642 6.51323ZM8 2.14267C8.276 2.14267 8.54069 2.23837 8.73585 2.40871C8.93101 2.57906 9.04064 2.8101 9.04064 3.05101C9.04064 3.29191 8.93101 3.52295 8.73585 3.6933C8.54069 3.86365 8.276 3.95935 8 3.95935C7.724 3.95935 7.45931 3.86365 7.26415 3.6933C7.06899 3.52295 6.95935 3.29191 6.95935 3.05101C6.95935 2.8101 7.06899 2.57906 7.26415 2.40871C7.45931 2.23837 7.724 2.14267 8 2.14267V2.14267Z" fill="#F4AF3D" fill-opacity="0.7"/>
</svg>
