<svg width="16" height="16" viewBox="0 0 16 16" fill="none" xmlns="http://www.w3.org/2000/svg">
<path d="M10 10.0039H16V16.0039H10V10.0039Z" fill="#9AA7B0"/>
<path fill-rule="evenodd" clip-rule="evenodd" d="M13 5.37671C13 5.80238 12.8074 6.21084 12.4642 6.51323L9.66689 9.00391H9V14.2762L8.29158 14.8945C8.2533 14.928 8.20784 14.9545 8.15781 14.9726C8.10778 14.9907 8.05416 15 8 15C7.94584 15 7.89222 14.9907 7.84219 14.9726C7.79216 14.9545 7.7467 14.928 7.70842 14.8945L6.50187 13.8414C6.38609 13.7382 6.32113 13.5996 6.32089 13.4552V9.17243C6.32056 9.05383 6.26631 8.9402 6.17007 8.85649L3.53578 6.51323C3.19255 6.21084 3 5.80238 3 5.37671C3 4.95104 3.19255 4.54258 3.53578 4.24019L6.70296 1.4669C7.04769 1.16785 7.51398 1 8 1C8.48602 1 8.9523 1.16785 9.29704 1.4669L12.4642 4.24019C12.8074 4.54258 13 4.95104 13 5.37671ZM8.73585 2.40871C8.54069 2.23837 8.276 2.14267 8 2.14267C7.724 2.14267 7.45931 2.23837 7.26415 2.40871C7.06899 2.57906 6.95935 2.8101 6.95935 3.05101C6.95935 3.29191 7.06899 3.52295 7.26415 3.6933C7.45931 3.86365 7.724 3.95935 8 3.95935C8.276 3.95935 8.54069 3.86365 8.73585 3.6933C8.93101 3.52295 9.04064 3.29191 9.04064 3.05101C9.04064 2.8101 8.93101 2.57906 8.73585 2.40871Z" fill="#F4AF3D" fill-opacity="0.7"/>
</svg>
