<svg width="16" height="16" viewBox="0 0 16 16" fill="none" xmlns="http://www.w3.org/2000/svg">
<g clip-path="url(#clip0_817_392)">
<path d="M4.99967 5.15642V2.0001H13.9999V12.9999H9V14H15V1H4V5.00001C4.34535 5.00001 4.68074 5.05486 4.99967 5.15642Z" fill="#40B6E0" fill-opacity="0.8"/>
<path d="M6 5.66192V5H7V6H6.41027C6.28067 5.87775 6.1436 5.76467 6 5.66192Z" fill="#40B6E0" fill-opacity="0.8"/>
<path d="M8 9.40374V9H9V10H8.65654C8.48761 9.75419 8.26342 9.5486 8 9.40374Z" fill="#40B6E0" fill-opacity="0.8"/>
<path d="M12 3H13V4H12V3Z" fill="#40B6E0" fill-opacity="0.8"/>
<path d="M10 3H11V4H10V3Z" fill="#40B6E0" fill-opacity="0.8"/>
<path d="M8 3H9V4H8V3Z" fill="#40B6E0" fill-opacity="0.8"/>
<path d="M6 3H7V4H6V3Z" fill="#40B6E0" fill-opacity="0.8"/>
<path d="M12 5H13V6H12V5Z" fill="#40B6E0" fill-opacity="0.8"/>
<path d="M10 5H11V6H10V5Z" fill="#40B6E0" fill-opacity="0.8"/>
<path d="M8 5H9V6H8V5Z" fill="#40B6E0" fill-opacity="0.8"/>
<path d="M12 7H13V8H12V7Z" fill="#40B6E0" fill-opacity="0.8"/>
<path d="M10 7H11V8H10V7Z" fill="#40B6E0" fill-opacity="0.8"/>
<path d="M8 7H9V8H8V7Z" fill="#40B6E0" fill-opacity="0.8"/>
<path d="M12 9H13V10H12V9Z" fill="#40B6E0" fill-opacity="0.8"/>
<path d="M10 9H11V10H10V9Z" fill="#40B6E0" fill-opacity="0.8"/>
<path d="M5.47368 9.0733C5.47368 8.1336 4.78147 7.3692 4 7.3692C3.21853 7.3692 2.52632 8.1336 2.52632 9.0733V10.1717H1.26316V9.0733C1.26316 7.3831 2.59368 6 4 6C5.40632 6 6.73684 7.3831 6.73684 9.0733V10.1717H5.47368V9.0733ZM0 11.106C0 10.59 0.407158 10.1717 0.909473 10.1717H7.09053C7.59284 10.1717 8 10.59 8 11.106V14.8603C8 15.3764 7.59284 16 7.09053 16H0.909473C0.407158 16 0 15.3764 0 14.8603V11.106Z" fill="#F4AF3D" fill-opacity="0.7"/>
</g>
<defs>
<clipPath id="clip0_817_392">
<rect width="16" height="16" fill="white"/>
</clipPath>
</defs>
</svg>
