<svg width="16" height="16" viewBox="0 0 16 16" fill="none" xmlns="http://www.w3.org/2000/svg">
<g clip-path="url(#clip0_817_392)">
<path d="M11.0003 5.15642V2.0001H2.00012V12.9999H7V14H1V1H12V5.00001C11.6546 5.00001 11.3193 5.05486 11.0003 5.15642Z" fill="#40B6E0" fill-opacity="0.8"/>
<path d="M10 5.66192V5H9V6H9.58973C9.71933 5.87775 9.8564 5.76467 10 5.66192Z" fill="#40B6E0" fill-opacity="0.8"/>
<path d="M8 9.40374V9H7V10H7.34346C7.51239 9.75419 7.73658 9.5486 8 9.40374Z" fill="#40B6E0" fill-opacity="0.8"/>
<path d="M4 3H3V4H4V3Z" fill="#40B6E0" fill-opacity="0.8"/>
<path d="M6 3H5V4H6V3Z" fill="#40B6E0" fill-opacity="0.8"/>
<path d="M8 3H7V4H8V3Z" fill="#40B6E0" fill-opacity="0.8"/>
<path d="M10 3H9V4H10V3Z" fill="#40B6E0" fill-opacity="0.8"/>
<path d="M4 5H3V6H4V5Z" fill="#40B6E0" fill-opacity="0.8"/>
<path d="M6 5H5V6H6V5Z" fill="#40B6E0" fill-opacity="0.8"/>
<path d="M8 5H7V6H8V5Z" fill="#40B6E0" fill-opacity="0.8"/>
<path d="M4 7H3V8H4V7Z" fill="#40B6E0" fill-opacity="0.8"/>
<path d="M6 7H5V8H6V7Z" fill="#40B6E0" fill-opacity="0.8"/>
<path d="M8 7H7V8H8V7Z" fill="#40B6E0" fill-opacity="0.8"/>
<path d="M4 9H3V10H4V9Z" fill="#40B6E0" fill-opacity="0.8"/>
<path d="M6 9H5V10H6V9Z" fill="#40B6E0" fill-opacity="0.8"/>
<path d="M10.5263 9.0733C10.5263 8.1336 11.2185 7.3692 12 7.3692C12.7815 7.3692 13.4737 8.1336 13.4737 9.0733V10.1717H14.7368V9.0733C14.7368 7.3831 13.4063 6 12 6C10.5937 6 9.26316 7.3831 9.26316 9.0733V10.1717H10.5263V9.0733ZM16 11.106C16 10.59 15.5928 10.1717 15.0905 10.1717H8.90947C8.40716 10.1717 8 10.59 8 11.106V14.8603C8 15.3764 8.40716 16 8.90947 16H15.0905C15.5928 16 16 15.3764 16 14.8603V11.106V11.106Z" fill="#F4AF3D" fill-opacity="0.7"/>
</g>
<defs>
<clipPath id="clip0_817_392">
<rect width="16" height="16" fill="white"/>
</clipPath>
</defs>
</svg>
