<svg width="16" height="16" viewBox="0 0 16 16" fill="none" xmlns="http://www.w3.org/2000/svg">
<path d="M4.99967 5.15642V2.0001H13.9999V8.25602C14.356 8.38186 14.6915 8.55124 15 8.75777V1H4V5.00001C4.34535 5.00001 4.68074 5.05486 4.99967 5.15642Z" fill="#40B6E0" fill-opacity="0.8"/>
<path d="M8.75777 10H8.65654C8.48761 9.75419 8.26342 9.5486 8 9.40374V9H9V9.67133C8.91446 9.77704 8.83361 9.8867 8.75777 10Z" fill="#40B6E0" fill-opacity="0.8"/>
<path d="M12 8V7H13V8H12Z" fill="#40B6E0" fill-opacity="0.8"/>
<path d="M6 5.66192V5H7V6H6.41027C6.28067 5.87775 6.1436 5.76467 6 5.66192Z" fill="#40B6E0" fill-opacity="0.8"/>
<path d="M12 3H13V4H12V3Z" fill="#40B6E0" fill-opacity="0.8"/>
<path d="M11 3H10V4H11V3Z" fill="#40B6E0" fill-opacity="0.8"/>
<path d="M8 3H9V4H8V3Z" fill="#40B6E0" fill-opacity="0.8"/>
<path d="M7 3H6V4H7V3Z" fill="#40B6E0" fill-opacity="0.8"/>
<path d="M12 5H13V6H12V5Z" fill="#40B6E0" fill-opacity="0.8"/>
<path d="M11 5H10V6H11V5Z" fill="#40B6E0" fill-opacity="0.8"/>
<path d="M8 5H9V6H8V5Z" fill="#40B6E0" fill-opacity="0.8"/>
<path d="M10 7H11V8H10V7Z" fill="#40B6E0" fill-opacity="0.8"/>
<path d="M9 7H8V8H9V7Z" fill="#40B6E0" fill-opacity="0.8"/>
<path d="M5.47368 9.0733C5.47368 8.1336 4.78147 7.3692 4 7.3692C3.21853 7.3692 2.52632 8.1336 2.52632 9.0733V10.1717H1.26316V9.0733C1.26316 7.3831 2.59368 6 4 6C5.40632 6 6.73684 7.3831 6.73684 9.0733V10.1717H5.47368V9.0733ZM-5.96046e-08 11.106C-5.96046e-08 10.59 0.407158 10.1717 0.909474 10.1717H7.09053C7.59284 10.1717 8 10.59 8 11.106V14.8603C8 15.3764 7.59284 16 7.09053 16H0.909474C0.407158 16 -5.96046e-08 15.3764 -5.96046e-08 14.8603V11.106V11.106Z" fill="#F4AF3D" fill-opacity="0.7"/>
<path fill-rule="evenodd" clip-rule="evenodd" d="M12.5 16C14.433 16 16 14.433 16 12.5C16 10.567 14.433 9 12.5 9C10.567 9 9 10.567 9 12.5C9 14.433 10.567 16 12.5 16ZM10.7322 11.4393L11.4393 10.7322L12.5 11.7929L13.5607 10.7323L14.2678 11.4394L13.2071 12.5L14.2678 13.5607L13.5607 14.2678L12.5 13.2071L11.4393 14.2678L10.7322 13.5607L11.7929 12.5L10.7322 11.4393Z" fill="#E05555"/>
</svg>
