<svg width="16" height="16" viewBox="0 0 16 16" fill="none" xmlns="http://www.w3.org/2000/svg">
<g clip-path="url(#clip0_818_149)">
<path d="M16 13.0039C16 14.6608 14.6569 16.0039 13 16.0039C11.3431 16.0039 10 14.6608 10 13.0039C10 11.3471 11.3431 10.0039 13 10.0039C14.6569 10.0039 16 11.3471 16 13.0039Z" fill="#62B543"/>
<path d="M4.99967 5.15642V2.0001H13.9999V9.12989C14.3547 9.2212 14.6905 9.35997 15 9.53903V1H4V5.00001C4.34535 5.00001 4.68074 5.05486 4.99967 5.15642Z" fill="#40B6E0" fill-opacity="0.8"/>
<path d="M10.3586 10H10V9H11V9.53903C10.7709 9.67158 10.5561 9.82621 10.3586 10Z" fill="#40B6E0" fill-opacity="0.8"/>
<path d="M6 5.66192V5H7V6H6.41027C6.28067 5.87775 6.1436 5.76467 6 5.66192Z" fill="#40B6E0" fill-opacity="0.8"/>
<path d="M8 9V9.40374C8.26342 9.5486 8.48761 9.75419 8.65654 10H9V9H8Z" fill="#40B6E0" fill-opacity="0.8"/>
<path d="M12 3H13V4H12V3Z" fill="#40B6E0" fill-opacity="0.8"/>
<path d="M11 3H10V4H11V3Z" fill="#40B6E0" fill-opacity="0.8"/>
<path d="M8 3H9V4H8V3Z" fill="#40B6E0" fill-opacity="0.8"/>
<path d="M7 3H6V4H7V3Z" fill="#40B6E0" fill-opacity="0.8"/>
<path d="M12 5H13V6H12V5Z" fill="#40B6E0" fill-opacity="0.8"/>
<path d="M11 5H10V6H11V5Z" fill="#40B6E0" fill-opacity="0.8"/>
<path d="M8 5H9V6H8V5Z" fill="#40B6E0" fill-opacity="0.8"/>
<path d="M13 7H12V8H13V7Z" fill="#40B6E0" fill-opacity="0.8"/>
<path d="M10 7H11V8H10V7Z" fill="#40B6E0" fill-opacity="0.8"/>
<path d="M9 7H8V8H9V7Z" fill="#40B6E0" fill-opacity="0.8"/>
<path d="M5.47368 9.0733C5.47368 8.1336 4.78147 7.3692 4 7.3692C3.21853 7.3692 2.52632 8.1336 2.52632 9.0733V10.1717H1.26316V9.0733C1.26316 7.3831 2.59368 6 4 6C5.40632 6 6.73684 7.3831 6.73684 9.0733V10.1717H5.47368V9.0733ZM-5.96046e-08 11.106C-5.96046e-08 10.59 0.407158 10.1717 0.909474 10.1717H7.09053C7.59284 10.1717 8 10.59 8 11.106V14.8603C8 15.3764 7.59284 16 7.09053 16H0.909474C0.407158 16 -5.96046e-08 15.3764 -5.96046e-08 14.8603V11.106V11.106Z" fill="#F4AF3D" fill-opacity="0.7"/>
</g>
<defs>
<clipPath id="clip0_818_149">
<rect width="16" height="16" fill="white"/>
</clipPath>
</defs>
</svg>
