<svg width="16" height="16" viewBox="0 0 16 16" fill="none" xmlns="http://www.w3.org/2000/svg">
<path d="M4.99967 2.0001V5.15642C4.68074 5.05486 4.34535 5.00001 4 5.00001V1H15V9.00391H13.9999V2.0001H4.99967Z" fill="#40B6E0" fill-opacity="0.8"/>
<path d="M12 9.00391H13V9H12V9.00391Z" fill="#40B6E0" fill-opacity="0.8"/>
<path d="M10 9.00391H11V9H10V9.00391Z" fill="#40B6E0" fill-opacity="0.8"/>
<path d="M9 10H8.65654C8.48761 9.75419 8.26342 9.5486 8 9.40374V9H9V10Z" fill="#40B6E0" fill-opacity="0.8"/>
<path d="M6 5V5.66192C6.1436 5.76467 6.28067 5.87775 6.41027 6H7V5H6Z" fill="#40B6E0" fill-opacity="0.8"/>
<path d="M13 3H12V4H13V3Z" fill="#40B6E0" fill-opacity="0.8"/>
<path d="M10 3H11V4H10V3Z" fill="#40B6E0" fill-opacity="0.8"/>
<path d="M9 3H8V4H9V3Z" fill="#40B6E0" fill-opacity="0.8"/>
<path d="M6 3H7V4H6V3Z" fill="#40B6E0" fill-opacity="0.8"/>
<path d="M13 5H12V6H13V5Z" fill="#40B6E0" fill-opacity="0.8"/>
<path d="M10 5H11V6H10V5Z" fill="#40B6E0" fill-opacity="0.8"/>
<path d="M9 5H8V6H9V5Z" fill="#40B6E0" fill-opacity="0.8"/>
<path d="M12 7H13V8H12V7Z" fill="#40B6E0" fill-opacity="0.8"/>
<path d="M11 7H10V8H11V7Z" fill="#40B6E0" fill-opacity="0.8"/>
<path d="M8 7H9V8H8V7Z" fill="#40B6E0" fill-opacity="0.8"/>
<path d="M5.47368 9.0733C5.47368 8.1336 4.78147 7.3692 4 7.3692C3.21853 7.3692 2.52632 8.1336 2.52632 9.0733V10.1717H1.26316V9.0733C1.26316 7.3831 2.59368 6 4 6C5.40632 6 6.73684 7.3831 6.73684 9.0733V10.1717H5.47368V9.0733ZM-5.96046e-08 11.106C-5.96046e-08 10.59 0.407158 10.1717 0.909474 10.1717H7.09053C7.59284 10.1717 8 10.59 8 11.106V14.8603C8 15.3764 7.59284 16 7.09053 16H0.909474C0.407158 16 -5.96046e-08 15.3764 -5.96046e-08 14.8603V11.106V11.106Z" fill="#F4AF3D" fill-opacity="0.7"/>
<path d="M10 10H16V16H10V10Z" fill="#9AA7B0"/>
</svg>
