<svg width="16" height="16" viewBox="0 0 16 16" fill="none" xmlns="http://www.w3.org/2000/svg">
<g clip-path="url(#clip0_818_346)">
<path d="M5.47368 9.0733C5.47368 8.1336 4.78147 7.3692 4 7.3692C3.21853 7.3692 2.52632 8.1336 2.52632 9.0733V10.1717H1.26316V9.0733C1.26316 7.3831 2.59368 6 4 6C5.40632 6 6.73684 7.3831 6.73684 9.0733V10.1717H5.47368V9.0733ZM-5.96046e-08 11.106C-5.96046e-08 10.59 0.407158 10.1717 0.909474 10.1717H7.09053C7.59284 10.1717 8 10.59 8 11.106V14.8603C8 15.3764 7.59284 16 7.09053 16H0.909474C0.407158 16 -5.96046e-08 15.3764 -5.96046e-08 14.8603V11.106V11.106Z" fill="#F4AF3D" fill-opacity="0.7"/>
<path d="M4.99967 2.0001V5.15642C4.68074 5.05486 4.34535 5.00001 4 5.00001V1H15V7.84163C14.6848 7.6921 14.3477 7.58996 13.9999 7.53977V2.0001H4.99967Z" fill="#40B6E0" fill-opacity="0.8"/>
<path d="M12 7.84163C12.3152 7.69212 12.6522 7.58998 13 7.53979V7H12V7.84163Z" fill="#40B6E0" fill-opacity="0.8"/>
<path d="M10.1471 10C10.2537 9.64389 10.4166 9.30613 10.6304 9H10V10H10.1471Z" fill="#40B6E0" fill-opacity="0.8"/>
<path d="M12.0518 12.9999H9V14H11.8923V13.7539C11.9181 13.4817 11.9723 13.2311 12.0518 12.9999Z" fill="#40B6E0" fill-opacity="0.8"/>
<path d="M6 5V5.66192C6.1436 5.76467 6.28067 5.87775 6.41027 6H7V5H6Z" fill="#40B6E0" fill-opacity="0.8"/>
<path d="M8 9.40374V9H9V10H8.65654C8.48761 9.75419 8.26342 9.5486 8 9.40374Z" fill="#40B6E0" fill-opacity="0.8"/>
<path d="M13 3H12V4H13V3Z" fill="#40B6E0" fill-opacity="0.8"/>
<path d="M10 3H11V4H10V3Z" fill="#40B6E0" fill-opacity="0.8"/>
<path d="M9 3H8V4H9V3Z" fill="#40B6E0" fill-opacity="0.8"/>
<path d="M6 3H7V4H6V3Z" fill="#40B6E0" fill-opacity="0.8"/>
<path d="M13 5H12V6H13V5Z" fill="#40B6E0" fill-opacity="0.8"/>
<path d="M10 5H11V6H10V5Z" fill="#40B6E0" fill-opacity="0.8"/>
<path d="M9 5H8V6H9V5Z" fill="#40B6E0" fill-opacity="0.8"/>
<path d="M11 7H10V8H11V7Z" fill="#40B6E0" fill-opacity="0.8"/>
<path d="M8 7H9V8H8V7Z" fill="#40B6E0" fill-opacity="0.8"/>
<path d="M12.875 16.0039H14.125V14.7539H12.875V16.0039ZM13.5 8.50391C12.837 8.50391 12.2011 8.7673 11.7322 9.23614C11.2634 9.70498 11 10.3409 11 11.0039H12.25C12.25 10.3159 12.813 9.75391 13.5 9.75391C14.188 9.75391 14.75 10.3169 14.75 11.0039C14.75 12.2539 12.875 12.0979 12.875 14.1289H14.125C14.125 12.7229 16 12.5659 16 11.0039C16 10.3409 15.7366 9.70498 15.2678 9.23614C14.7989 8.7673 14.163 8.50391 13.5 8.50391Z" fill="#AFB1B3"/>
</g>
<defs>
<clipPath id="clip0_818_346">
<rect width="16" height="16" fill="white"/>
</clipPath>
</defs>
</svg>
