<svg width="16" height="16" viewBox="0 0 16 16" fill="none" xmlns="http://www.w3.org/2000/svg">
<path fill-rule="evenodd" clip-rule="evenodd" d="M12.5 16C14.433 16 16 14.433 16 12.5C16 10.567 14.433 9 12.5 9C10.567 9 9 10.567 9 12.5C9 14.433 10.567 16 12.5 16ZM10.7322 11.4393L11.4393 10.7322L12.5 11.7929L13.5607 10.7323L14.2678 11.4394L13.2071 12.5L14.2678 13.5607L13.5607 14.2678L12.5 13.2071L11.4393 14.2678L10.7322 13.5607L11.7929 12.5L10.7322 11.4393Z" fill="#E05555"/>
<path d="M14.5333 1H1.46667C1.20893 1 1 1.21069 1 1.47059V7.08648C1.26119 6.67696 1.60171 6.32303 2 6.04664V2.22857C2 2.10233 2.10137 2 2.22642 2H13.7736C13.8986 2 14 2.10233 14 2.22857V8.25606C14.356 8.3819 14.6915 8.55127 15 8.75778V1.47059C15 1.21069 14.7911 1 14.5333 1Z" fill="#F4AF3D" fill-opacity="0.7"/>
<path d="M8.75777 10C8.55127 10.3085 8.3819 10.644 8.25606 11H7.14869C7.34174 10.6943 7.49071 10.358 7.58673 10H8.75777Z" fill="#F4AF3D" fill-opacity="0.7"/>
<path d="M12.75 8C12.8881 8 13 7.88807 13 7.75C13 7.61193 12.8881 7.5 12.75 7.5H8.25C8.11193 7.5 8 7.61193 8 7.75C8 7.88807 8.11193 8 8.25 8H12.75Z" fill="#F4AF3D" fill-opacity="0.7"/>
<path d="M4 4.25C4 4.11193 4.11193 4 4.25 4H12.75C12.8881 4 13 4.11193 13 4.25C13 4.38807 12.8881 4.5 12.75 4.5H4.25C4.11193 4.5 4 4.38807 4 4.25Z" fill="#F4AF3D" fill-opacity="0.7"/>
<path d="M8 6.25C8 6.11193 8.11193 6 8.25 6H12.75C12.8881 6 13 6.11193 13 6.25C13 6.38807 12.8881 6.5 12.75 6.5H8.25C8.11193 6.5 8 6.38807 8 6.25Z" fill="#F4AF3D" fill-opacity="0.7"/>
<path d="M5.78466 10.5C5.29134 10.9568 4.66344 11.5 4 11.5C3.33656 11.5 2.70387 10.9568 2.21055 10.5L2.00097 14.6006C1.99557 14.6753 2.01283 14.75 2.05036 14.8142C2.0879 14.8785 2.14387 14.9291 2.21055 14.9593C2.27723 14.9894 2.35134 14.9974 2.42266 14.9824C2.49399 14.9673 2.55901 14.9298 2.60877 14.8751L3.995 13.4257L5.39189 14.886C5.44107 14.9398 5.50505 14.9769 5.57526 14.9922C5.64546 15.0075 5.71853 15.0003 5.78466 14.9716C5.8508 14.943 5.90684 14.8941 5.94527 14.8317C5.98371 14.7693 6.00269 14.6963 5.99969 14.6225L5.78466 10.5Z" fill="#E05555"/>
<path fill-rule="evenodd" clip-rule="evenodd" d="M6.71131 9.05016C6.71131 10.5138 5.52874 11.7003 4.06995 11.7003C2.61117 11.7003 1.42859 10.5138 1.42859 9.05016C1.42859 7.58653 2.61117 6.40002 4.06995 6.40002C5.52874 6.40002 6.71131 7.58653 6.71131 9.05016ZM6.07975 9.0504C6.07975 10.1602 5.18005 11.0599 4.07021 11.0599C2.96037 11.0599 2.06067 10.1602 2.06067 9.0504C2.06067 7.94057 2.96037 7.04086 4.07021 7.04086C5.18005 7.04086 6.07975 7.94057 6.07975 9.0504Z" fill="#E05555"/>
<path d="M4.07021 11.06C5.18005 11.06 6.07975 10.1603 6.07975 9.05044C6.07975 7.9406 5.18005 7.04089 4.07021 7.04089C2.96037 7.04089 2.06067 7.9406 2.06067 9.05044C2.06067 10.1603 2.96037 11.06 4.07021 11.06Z" fill="#F4AF3D" fill-opacity="0.7"/>
</svg>
