<svg width="16" height="16" viewBox="0 0 16 16" fill="none" xmlns="http://www.w3.org/2000/svg">
<rect x="4" y="4" width="9" height="0.5" rx="0.25" fill="#F4AF3D" fill-opacity="0.7"/>
<rect x="8" y="6" width="5" height="0.5" rx="0.25" fill="#F4AF3D" fill-opacity="0.7"/>
<rect width="5" height="0.5" rx="0.25" transform="matrix(1 0 0 -1 8 8)" fill="#F4AF3D" fill-opacity="0.7"/>
<path d="M10 10.0039H16V16.0039H10V10.0039Z" fill="#9AA7B0"/>
<path d="M1.46667 1H14.5333C14.7911 1 15 1.21069 15 1.47059V9.00391H14V2.22857C14 2.10233 13.8986 2 13.7736 2H2.22642C2.10137 2 2 2.10233 2 2.22857V6.04664C1.60171 6.32303 1.26119 6.67696 1 7.08648V1.47059C1 1.21069 1.20893 1 1.46667 1Z" fill="#F4AF3D" fill-opacity="0.7"/>
<path d="M9 10H7.58673C7.49071 10.358 7.34174 10.6943 7.14869 11H9V10Z" fill="#F4AF3D" fill-opacity="0.7"/>
<path d="M5.78466 10.5C5.29134 10.9568 4.66344 11.5 4 11.5C3.33656 11.5 2.70387 10.9568 2.21055 10.5L2.00097 14.6006C1.99557 14.6753 2.01283 14.75 2.05036 14.8142C2.0879 14.8785 2.14387 14.9291 2.21055 14.9593C2.27723 14.9894 2.35134 14.9974 2.42266 14.9824C2.49399 14.9673 2.55901 14.9298 2.60877 14.8751L3.995 13.4257L5.39189 14.886C5.44107 14.9398 5.50505 14.9769 5.57526 14.9922C5.64546 15.0075 5.71853 15.0003 5.78466 14.9716C5.8508 14.943 5.90684 14.8941 5.94527 14.8317C5.98371 14.7693 6.00269 14.6963 5.99969 14.6225L5.78466 10.5Z" fill="#E05555"/>
<path fill-rule="evenodd" clip-rule="evenodd" d="M6.71131 9.05016C6.71131 10.5138 5.52874 11.7003 4.06995 11.7003C2.61117 11.7003 1.42859 10.5138 1.42859 9.05016C1.42859 7.58653 2.61117 6.40002 4.06995 6.40002C5.52874 6.40002 6.71131 7.58653 6.71131 9.05016ZM6.07975 9.0504C6.07975 10.1602 5.18005 11.0599 4.07021 11.0599C2.96037 11.0599 2.06067 10.1602 2.06067 9.0504C2.06067 7.94057 2.96037 7.04086 4.07021 7.04086C5.18005 7.04086 6.07975 7.94057 6.07975 9.0504Z" fill="#E05555"/>
<path d="M4.07021 11.06C5.18005 11.06 6.07975 10.1603 6.07975 9.05044C6.07975 7.9406 5.18005 7.04089 4.07021 7.04089C2.96037 7.04089 2.06067 7.9406 2.06067 9.05044C2.06067 10.1603 2.96037 11.06 4.07021 11.06Z" fill="#F4AF3D" fill-opacity="0.7"/>
</svg>
