<svg width="16" height="16" viewBox="0 0 16 16" fill="none" xmlns="http://www.w3.org/2000/svg">
<rect x="4" y="4" width="9" height="0.5" rx="0.25" fill="#F4AF3D" fill-opacity="0.7"/>
<rect x="8" y="6" width="5" height="0.5" rx="0.25" fill="#F4AF3D" fill-opacity="0.7"/>
<rect width="5" height="0.5" rx="0.25" transform="matrix(1 0 0 -1 8 8)" fill="#F4AF3D" fill-opacity="0.7"/>
<path d="M14.5333 1H1.46667C1.20893 1 1 1.21069 1 1.47059V7.08648C1.26119 6.67696 1.60171 6.32303 2 6.04664V2.22857C2 2.10233 2.10137 2 2.22642 2H13.7736C13.8986 2 14 2.10233 14 2.22857V7.53979C14.3478 7.58998 14.6848 7.69212 15 7.84163V1.47059C15 1.21069 14.7911 1 14.5333 1Z" fill="#F4AF3D" fill-opacity="0.7"/>
<path d="M10.1471 10C10.0508 10.3216 10.0004 10.6582 10 11H7.14869C7.34174 10.6943 7.49071 10.358 7.58673 10H10.1471Z" fill="#F4AF3D" fill-opacity="0.7"/>
<path d="M12.875 16.0039H14.125V14.7539H12.875V16.0039ZM13.5 8.50391C12.837 8.50391 12.2011 8.7673 11.7322 9.23614C11.2634 9.70498 11 10.3409 11 11.0039H12.25C12.25 10.3159 12.813 9.75391 13.5 9.75391C14.188 9.75391 14.75 10.3169 14.75 11.0039C14.75 12.2539 12.875 12.0979 12.875 14.1289H14.125C14.125 12.7229 16 12.5659 16 11.0039C16 10.3409 15.7366 9.70498 15.2678 9.23614C14.7989 8.7673 14.163 8.50391 13.5 8.50391Z" fill="#AFB1B3"/>
<path d="M5.78466 10.5C5.29134 10.9568 4.66344 11.5 4 11.5C3.33656 11.5 2.70387 10.9568 2.21055 10.5L2.00097 14.6006C1.99557 14.6753 2.01283 14.75 2.05036 14.8142C2.0879 14.8785 2.14387 14.9291 2.21055 14.9593C2.27723 14.9894 2.35134 14.9974 2.42266 14.9824C2.49399 14.9673 2.55901 14.9298 2.60877 14.8751L3.995 13.4257L5.39189 14.886C5.44107 14.9398 5.50505 14.9769 5.57526 14.9922C5.64546 15.0075 5.71853 15.0003 5.78466 14.9716C5.8508 14.943 5.90684 14.8941 5.94527 14.8317C5.98371 14.7693 6.00269 14.6963 5.99969 14.6225L5.78466 10.5Z" fill="#E05555"/>
<path fill-rule="evenodd" clip-rule="evenodd" d="M6.71131 9.05016C6.71131 10.5138 5.52874 11.7003 4.06995 11.7003C2.61117 11.7003 1.42859 10.5138 1.42859 9.05016C1.42859 7.58653 2.61117 6.40002 4.06995 6.40002C5.52874 6.40002 6.71131 7.58653 6.71131 9.05016ZM6.07975 9.0504C6.07975 10.1602 5.18005 11.0599 4.07021 11.0599C2.96037 11.0599 2.06067 10.1602 2.06067 9.0504C2.06067 7.94057 2.96037 7.04086 4.07021 7.04086C5.18005 7.04086 6.07975 7.94057 6.07975 9.0504Z" fill="#E05555"/>
<path d="M4.07021 11.06C5.18005 11.06 6.07975 10.1603 6.07975 9.05044C6.07975 7.9406 5.18005 7.04089 4.07021 7.04089C2.96037 7.04089 2.06067 7.9406 2.06067 9.05044C2.06067 10.1603 2.96037 11.06 4.07021 11.06Z" fill="#F4AF3D" fill-opacity="0.7"/>
</svg>
