<svg width="40" height="40" viewBox="0 0 40 40" xmlns="http://www.w3.org/2000/svg">
  <path fill="#54b5ff" d="M37.905 34.374c-1.184-3.491-8.058-23.692-10.25-30.151A1.817 1.817 0 0 0 25.941 3H14.094c.775 0 1.449.44 1.699 1.176.826 2.434 8.865 25.849 10.315 30.123.081.238.103.472.101.7a1.367 1.367 0 0 1-1.263-.868l-3.578-9.154h-4.191l1.949-5.735-5.042-12.899A2.11 2.11 0 0 0 12.118 5c-1.97 5.812-9.508 28.119-10.024 29.653a1.75 1.75 0 0 0-.094.564C2 36.2 2.859 37 3.813 37h7.985c.783 0 1.463-.503 1.662-1.089l2.123-6.244c2.724 2.567 6.226 5.866 7.196 6.776a2.002 2.002 0 0 0 1.452.55c-.015 0-.029.005-.044.005h11.756c1.251 0 2.058-1.028 2.058-2.042 0-.198-.031-.395-.095-.584Z"/>
</svg>
