<svg width="13" height="13" viewBox="0 0 13 13" xmlns="http://www.w3.org/2000/svg">
  <path fill="#afb1b3" d="M8.095 6H13V5H7.734l.361 1zm.723 2H13V7H8.457l.361 1zM7.373 4H13V3H7.012l.361 1zM6.289 1l.361 1H13V1H6.289zm2.69 10.459L6.701 5.251a.402.402 0 0 0-.381-.252H3.687c.172 0 .322.091.378.242.17.465 1.718 4.642 2.199 5.947a.534.534 0 0 1-.476-.292l-.646-1.373h-.769l.337-.919-1.228-2.611a.5.5 0 0 0-.351-.262L1.02 11.515a.343.343 0 0 0-.021.116c0 .202.191.367.403.367h1.774c.174 0 .325-.104.369-.224l.472-1.285 1.599 1.395a.464.464 0 0 0 .313.114h2.613c.278 0 .457-.211.457-.42a.353.353 0 0 0-.021-.12Z"/>
</svg>
