<svg width="225" height="225" viewBox="0 0 225 225" xmlns="http://www.w3.org/2000/svg">
  <path fill="#40b6e0" d="m201.031 184.023-50.683-148.98c-1.268-3.734-4.814-6.042-8.473-6.042H83.297c3.834 0 7.166 2.175 8.4 5.809 4.083 12.027 43.833 127.725 51.001 148.843.146.43.262.859.351 1.286a6.086 6.086 0 0 1-5.66-3.849l-17.195-43.498h-21.65c3.252-9.559 6.651-19.549 10.013-29.437l-28.576-72.29a4.525 4.525 0 0 0-4.183-2.86c-.333.517-.628 1.06-.829 1.65L23.967 185.402a8.693 8.693 0 0 0-.467 2.789c0 4.855 4.247 8.809 8.962 8.809h39.48c3.871 0 7.234-2.485 8.218-5.38 2.288-6.731 6.022-17.704 10.496-30.851a53606.525 53606.525 0 0 0 35.578 33.484c1.378 1.294 3.626 2.743 6.962 2.743h58.129c6.186 0 10.175-5.074 10.175-10.085 0-.978-.152-1.953-.469-2.888Z" opacity=".7"/>
</svg>
