<svg width="16" height="16" viewBox="0 0 16 16" xmlns="http://www.w3.org/2000/svg">
  <path fill="#ffdbff" d="M0 0h16v16H0z"/>
  <path fill="#40b6e0" d="m5.259 12.828 1.12-1.235.062-.181.055.052 1.03-1.136c.181-.199.435-.312.704-.327h.037c.051 0 .098.021.147.028l-.107-.272H7.003l.605-1.781-1.754-4.474A.79.79 0 0 0 5.118 3L1.68 13.172a.62.62 0 0 0-.033.199c0 .347.303.629.64.629h2.818c.016 0 .029-.006.045-.007a.988.988 0 0 1 .11-1.165ZM6.515 2.415c.198.582 1.8 5.259 2.811 8.212l.362.344a1 1 0 0 1 .305.835l.386-1.13a1 1 0 0 1 1.267-.624l.946.321c.081.028.158.065.228.111l.222-.21c.078-.074.171-.125.266-.171L10.699 2.43a.642.642 0 0 0-.605-.432H5.913c.274 0 .511.155.6.415Z" opacity=".7"/>
  <path fill="#9aa7b0" d="M8.267 16 6 13.5 8.267 11l.733.697L7.365 13.5 9 15.303 8.267 16ZM16 13.5 13.733 11l-.733.697 1.635 1.803L13 15.303l.733.697L16 13.5Zm-3.727-2.179L11.327 11l-1.6 4.679.946.321 1.6-4.679Z"/>
</svg>
