<svg width="16" height="16" viewBox="0 0 16 16" xmlns="http://www.w3.org/2000/svg">
  <path fill="#40b6e0" d="M14.319 13.073 10.701 2.432A.642.642 0 0 0 10.096 2H5.915c.274 0 .511.155.6.415.291.859 3.64 10.632 3.64 10.632a.766.766 0 0 1-.748-.487L8.308 9.757H7.004l.605-1.781-1.754-4.474A.79.79 0 0 0 5.119 3L1.68 13.172a.62.62 0 0 0-.033.199c0 .347.303.629.64.629h2.818c.276 0 .516-.177.587-.384l.749-2.204 2.54 2.392a.709.709 0 0 0 .497.196h4.149a.721.721 0 0 0 .726-.72c0-.07-.011-.14-.034-.206Z" opacity=".7"/>
</svg>
