<svg width="16" height="16" viewBox="0 0 16 16" xmlns="http://www.w3.org/2000/svg">
  <path fill="#40b6e0" d="M11 13h-.86l.016.047a.76.76 0 0 1-.338-.072.993.993 0 0 1-.712-.527.992.992 0 0 1-.046-.775l-.751-1.916H7.005l.605-1.781-1.754-4.474A.79.79 0 0 0 5.12 3L1.68 13.172a.62.62 0 0 0-.033.199c0 .347.303.629.64.629h2.818c.276 0 .516-.177.587-.384l.749-2.204 2.54 2.392a.709.709 0 0 0 .497.196h1.523v-1Z" opacity=".7"/>
  <path fill="#40b6e0" d="M6.515 2.415c.207.61 1.957 5.72 2.953 8.627L12.2 7.4c.04-.053.1-.081.148-.124l-1.647-4.844A.642.642 0 0 0 10.096 2H5.915c.274 0 .511.155.6.415Z" opacity=".7"/>
  <path fill="#9aa7b0" d="m13 8-3 4h2v4h2v-4h2l-3-4z"/>
</svg>
