<svg width="13" height="13" viewBox="0 0 13 13" xmlns="http://www.w3.org/2000/svg">
  <path fill="#6e6e6e" d="M10 6a1 1 0 1 1-2 0 1 1 0 0 1 2 0ZM9 3c-.91 0-1.716.416-2.267 1.057l.756.648C7.856 4.277 8.394 4 9 4s1.144.277 1.511.705l.756-.648A2.983 2.983 0 0 0 9 3Zm0-2c-1.516 0-2.86.693-3.778 1.762l.755.648c.734-.855 1.809-1.409 3.022-1.409s2.288.554 3.022 1.409l.755-.648C11.858 1.693 10.514 1 8.998 1Zm-.021 10.459L6.701 5.251a.402.402 0 0 0-.381-.252H3.687c.172 0 .322.091.378.242.17.465 1.718 4.642 2.199 5.947a.534.534 0 0 1-.476-.292l-.646-1.373h-.769l.337-.919-1.228-2.611a.5.5 0 0 0-.351-.262L1.02 11.515a.343.343 0 0 0-.021.116c0 .202.191.367.403.367h1.774c.174 0 .325-.104.369-.224l.472-1.285 1.599 1.395a.464.464 0 0 0 .313.114h2.613c.278 0 .457-.211.457-.42a.353.353 0 0 0-.021-.12Z"/>
</svg>
